<svg width="80" height="184" viewBox="0 0 80 184" fill="none" xmlns="http://www.w3.org/2000/svg">
<path fill-rule="evenodd" clip-rule="evenodd" d="M29.598 161.628C29.5986 161.603 29.5993 161.579 29.6 161.556L37.484 161.38C37.4464 161.865 37.418 162.363 37.3892 162.869C37.1933 166.304 36.9788 170.067 33.724 172.284C33.1603 172.642 32.5303 172.874 31.8807 173.113C31.6086 173.213 31.333 173.315 31.0574 173.428C30.044 173.841 25.104 174.649 21.9907 173.3C20.3907 171.902 21.5907 169.741 22.924 168.597C23.6085 168.026 24.3067 167.507 24.9966 166.995C26.4569 165.91 27.8802 164.853 29.0574 163.385C29.124 163.258 29.1907 163.099 29.2574 162.94C29.324 162.781 29.3907 162.622 29.4574 162.495C29.5804 162.261 29.5899 161.918 29.598 161.628ZM41.7214 169.224C42.4067 167.14 42.6547 165.918 42.4747 164.012L52.1747 163.96C52.3454 165.681 52.1067 168.101 51.8214 170.111C51.444 172.871 50 175.397 47.772 177.195C47.396 177.516 46.9747 177.785 46.5214 177.995C46.2 178.099 45.888 178.226 45.588 178.376C41.448 179.552 39.0547 177.741 38.9214 177.614C36.8032 175.549 38.3392 173.762 39.8693 171.982C40.6507 171.073 41.4306 170.165 41.7214 169.224Z" fill="black"/>
<path d="M40.3174 160.737C40.388 161.729 40.5214 162.618 40.5214 163.635C44.9214 163.89 49.4547 164.017 53.8547 163.763C55.7494 163.613 57.6014 163.14 59.3214 162.364C61.3214 149.779 61.4547 136.94 60.2547 124.101C60.2547 123.719 60.388 123.211 60.2547 122.829C60.1214 122.194 60.1214 121.685 59.988 121.05V119.778C58.6547 107.956 56.788 96.5151 54.388 85.0741C45.0547 85.3284 35.8547 85.8369 26.5214 86.0911C22.396 103.985 20.9147 122.341 22.1214 140.626C22.0987 141.223 22.144 141.819 22.2547 142.406C22.5054 145.964 23.0867 149.496 23.988 152.957C24.2547 153.847 24.5214 154.864 24.9214 155.754C25.588 157.406 26.5214 159.059 27.188 160.712C29.7214 161.347 32.388 161.474 35.0547 161.347C36.5214 161.22 38.1214 161.22 39.652 160.863L40.3174 160.737Z" fill="white"/>
<path fill-rule="evenodd" clip-rule="evenodd" d="M53.652 85.2089C58.5343 109.807 62.5105 136.107 58.6353 161.843C55.9709 162.975 52.8479 163.106 50.1173 163.137C47.1947 163.168 44.2387 163.096 41.32 162.926C41.056 160.011 40.776 157.072 40.504 154.223C39.2947 141.549 38.0453 128.444 38.104 115.596C38.1267 111.077 37.64 106.614 33.9667 104.567C33.5853 104.355 33.0947 104.477 32.872 104.84C32.648 105.204 32.7773 105.672 33.1587 105.884C36.132 107.54 36.524 111.527 36.504 115.588C36.4453 128.508 37.6984 141.649 38.9103 154.357L38.9107 154.361L39.003 155.333C39.1531 156.912 39.3053 158.514 39.4551 160.12C35.601 160.714 31.6975 160.726 27.8427 160.155C23.6507 152.257 22.9867 144.382 22.696 137.605C21.9613 120.392 23.4893 103.119 27.2373 86.2665C27.3293 85.8546 27.0533 85.4504 26.6213 85.3627C26.1893 85.275 25.7653 85.5381 25.6733 85.95C21.8973 102.927 20.3587 120.328 21.0973 137.667C21.3987 144.706 22.0987 152.908 26.6053 161.198C26.7213 161.412 26.936 161.561 27.184 161.6C27.718 161.685 28.2528 161.758 28.7883 161.822C28.7812 161.957 28.7678 162.096 28.74 162.153C28.6648 162.298 28.5964 162.46 28.5296 162.618L28.5133 162.657C28.4653 162.772 28.4146 162.89 28.3707 162.983C27.2654 164.341 25.9241 165.337 24.5042 166.393L24.504 166.393L24.4719 166.417C23.7911 166.923 23.0863 167.447 22.388 168.03C21.4427 168.841 20.4306 170.22 20.424 171.659C20.42 172.511 20.7746 173.273 21.4493 173.862C21.5106 173.917 21.5813 173.962 21.6587 173.995C23.076 174.609 24.7933 174.817 26.4 174.817C28.6547 174.817 30.6906 174.406 31.372 174.131C31.6333 174.024 31.9053 173.923 32.168 173.827L32.1764 173.824C32.8431 173.578 33.532 173.324 34.1666 172.92C34.1733 172.915 34.1813 172.911 34.188 172.906C37.7541 170.478 37.9837 166.462 38.1863 162.918L38.1866 162.912L38.1939 162.785C38.2127 162.455 38.2309 162.137 38.252 161.824C38.7007 161.771 39.1488 161.711 39.5962 161.643C39.6597 162.333 39.7224 163.022 39.784 163.709C39.8187 164.085 40.1333 164.38 40.528 164.406C40.9214 164.431 41.3155 164.454 41.7102 164.476C41.8122 166.075 41.5596 167.169 40.9587 168.995L40.9567 169.001L40.9547 169.008C40.7093 169.801 39.968 170.664 39.2507 171.498L39.2429 171.507C38.4453 172.436 37.6215 173.395 37.2653 174.459C36.8253 175.774 37.1893 177.016 38.356 178.153C38.3747 178.172 39.9707 179.536 42.888 179.536C43.7507 179.536 44.7293 179.416 45.8173 179.106C45.8666 179.092 45.9146 179.073 45.96 179.05C46.2227 178.919 46.4973 178.806 46.7786 178.716C46.8093 178.706 46.8413 178.694 46.8706 178.68C47.388 178.441 47.868 178.135 48.2973 177.77C50.6786 175.845 52.212 173.161 52.6146 170.213C52.9449 167.891 53.0803 165.996 53.019 164.564C55.215 164.418 57.4957 164.054 59.572 163.112C59.6528 163.075 59.7241 163.027 59.785 162.97C59.9827 162.857 60.1271 162.662 60.1627 162.428C64.1653 136.353 60.1547 109.769 55.224 84.9254C55.1427 84.511 54.724 84.2402 54.2893 84.3177C53.8547 84.3966 53.5693 84.7945 53.652 85.2089ZM36.6379 161.982C35.6038 162.061 34.5679 162.101 33.532 162.101C32.4808 162.101 31.43 162.06 30.3809 161.978C30.3615 162.258 30.313 162.562 30.1693 162.836C30.1211 162.928 30.0648 163.06 30.009 163.192L29.996 163.222L29.9797 163.261C29.9129 163.419 29.8445 163.581 29.7693 163.726C29.7466 163.769 29.72 163.81 29.6893 163.848C28.4493 165.393 26.9427 166.513 25.4853 167.597L25.4433 167.628C24.783 168.119 24.1008 168.626 23.448 169.172C22.7453 169.774 22.0267 170.785 22.0227 171.667C22.0213 172.052 22.1587 172.378 22.4427 172.659C25.32 173.827 29.9227 173.06 30.7413 172.727C31.0108 172.617 31.2779 172.518 31.5372 172.423L31.5906 172.403C32.2013 172.178 32.78 171.964 33.268 171.657C36.2 169.652 36.3973 166.183 36.588 162.828C36.6037 162.549 36.6199 162.264 36.6379 161.982ZM43.3165 164.554C43.4025 166.285 43.1031 167.571 42.4867 169.446C42.1498 170.531 41.3066 171.513 40.4918 172.461L40.488 172.465C38.68 174.569 38.0347 175.643 39.4747 177.062C39.62 177.171 41.696 178.659 45.2893 177.666C45.588 177.521 45.8986 177.395 46.2146 177.29C46.5853 177.114 46.9306 176.89 47.2386 176.627C47.2413 176.625 47.244 176.622 47.2467 176.62C47.2493 176.618 47.252 176.616 47.2546 176.613C49.3346 174.934 50.6746 172.59 51.028 170.012C51.3412 167.809 51.4738 165.971 51.4197 164.638C50.9845 164.651 50.5558 164.658 50.136 164.663C49.684 164.666 49.2307 164.669 48.7773 164.669C46.9599 164.669 45.1344 164.631 43.3165 164.554Z" fill="black"/>
<g clip-path="url(#clip0_4_400)">
<path d="M45.2493 49.8595C45.3693 51.1917 45.92 54.2017 47.9693 53.7506L48.1893 54.0804C48.0893 56.1473 47.0306 57.6048 45.372 59.1151C43.6866 60.6254 41.5373 61.5329 39.2693 61.6925C37.2693 61.8376 35.1426 61.3641 33.6466 60.0371C32.1506 58.7102 31.364 56.8714 32.3546 55.2952H32.4986C32.9493 55.3084 33.364 55.0749 33.7453 54.8375C34.2306 54.5341 35.232 53.2903 35.532 52.9328C35.932 52.4197 36.0946 50.4741 36.3 49.8595H45.2493V49.8595Z" fill="white"/>
<path d="M19.6547 114.446C19.0013 114.425 18.368 114.223 17.824 113.864C17.28 113.505 16.8493 113.004 16.5787 112.416C16.712 110.305 17.112 107.799 15.3787 106.085C15.112 105.029 15.912 104.238 16.8453 103.894L20.5893 104.374L19.6547 114.446Z" fill="white"/>
<path fill-rule="evenodd" clip-rule="evenodd" d="M19.237 100.944C19.8446 101.005 20.4489 101.066 21.076 101.184L21.14 101.192L20.2266 108.982L20.2259 108.989C20.0261 110.69 19.8265 112.389 19.7506 114.102C19.732 114.533 19.7306 114.999 19.9813 115.352C20.284 115.783 20.852 115.914 21.3693 116.012L27.1026 117.097L28.7786 117.291C37.6626 118.774 46.5626 118.389 55.4306 116.815L61.6266 115.595C62.1923 115.421 62.8114 115.345 63.4354 115.268C64.7454 115.106 66.0768 114.942 66.98 113.87C67.0893 113.62 67.1346 113.348 67.1133 113.078C66.7276 111.247 65.5386 107.958 64.4459 104.936C63.6498 102.734 62.9048 100.674 62.5586 99.4208L62.4253 99.2058C62.2746 89.226 61.8653 79.2172 59.5866 69.5131L59.1626 68.2455C58.0426 64.6709 56.576 61.2414 54.512 58.143L54.2453 55.6104C54.2506 55.1976 54.1453 54.7887 53.94 54.4286C53.7346 54.0685 53.4373 53.7678 53.0773 53.5567C52.7173 53.3457 52.308 53.2336 51.8893 53.2296C51.4706 53.2256 51.0586 53.3312 50.6946 53.5356C51.18 52.9025 50.9386 51.9106 50.3053 51.4252C49.672 50.9398 48.7773 50.8989 48.0133 51.1363C47.2493 51.3737 46.5906 51.8552 45.964 52.3485C45.5101 52.7069 45.061 53.0791 44.6109 53.4521C42.7204 55.0187 40.812 56.6002 38.46 57.2395L36.884 56.7514C36.0053 56.5562 35.416 55.7397 35.072 54.918C34.9528 54.6332 34.8534 54.3395 34.7541 54.0462C34.567 53.493 34.3802 52.9409 34.0613 52.4514C33.5733 51.7022 32.6506 51.1178 31.7946 51.3895C30.7453 51.7219 30.4586 53.0225 30.264 54.0962C30.2466 54.2598 30.1893 54.418 30.096 54.5539C29.9467 54.7375 29.6949 54.7904 29.4591 54.84C29.4442 54.8431 29.4294 54.8462 29.4146 54.8494C28.8813 54.9628 28.3386 55.1659 27.948 55.5498C27.5573 55.9336 27.3413 56.5259 27.52 57.0416L26.8453 58.1443C26.472 58.5598 25.512 59.9184 25.512 59.9184C23.046 64.027 22.0961 68.2606 21.0635 72.8624C21.0353 72.9882 21.007 73.1143 20.9786 73.2406C19.1296 81.899 18.3062 90.1064 17.4549 98.5924C17.3854 99.2851 17.3157 99.9797 17.2453 100.677C17.9342 100.813 18.5875 100.879 19.237 100.944ZM20.5906 104.374C19.4053 104.366 18.2266 104.188 17.092 103.846C17.172 102.864 17.2586 101.854 17.6866 100.964L20.984 101.328L20.5906 104.374Z" fill="black"/>
<path d="M52.6293 107.369C51.344 107.78 49.8413 109.307 50.928 110.716C51.5253 111.493 52.428 111.911 53.256 112.399C53.8933 112.773 54.0626 114.04 54.3093 114.71C54.9333 116.399 56.1453 117.79 58.1333 117.658C60.1546 117.526 61.412 115.823 61.796 113.987C62.212 111.995 61.5026 109.381 61.168 107.412L52.6293 107.369Z" fill="white"/>
<path fill-rule="evenodd" clip-rule="evenodd" d="M41.2107 61.9867C41.2387 62.4061 41.5907 62.7266 42.008 62.7266C42.0267 62.7266 42.044 62.7266 42.06 62.7227C45.6267 62.4919 49.1187 61.3865 52.16 59.5293C52.7881 59.1464 53.3146 58.746 53.7385 58.3294C53.7599 58.4138 53.7957 58.4962 53.8467 58.573C55.692 61.343 57.1814 64.5825 58.4014 68.475C58.508 68.8153 58.824 69.0329 59.1654 69.0329C59.244 69.0329 59.324 69.0211 59.4014 68.9973C59.824 68.8681 60.06 68.4249 59.9294 68.0067C58.664 63.9692 57.112 60.599 55.1827 57.7024C55.0323 57.476 54.7847 57.3514 54.5302 57.3465C54.8634 56.7955 55.035 56.2208 55.0427 55.625C55.0494 55.0723 54.908 54.5262 54.6347 54.0448C54.3614 53.5633 53.9627 53.1597 53.4814 52.8787C53.0014 52.5978 52.452 52.4474 51.8934 52.4421C51.84 52.4421 51.788 52.4421 51.7347 52.4448C51.6574 51.8248 51.3334 51.2181 50.792 50.8039C50.004 50.1998 48.8734 50.0428 47.7707 50.3858C46.8627 50.668 46.104 51.2286 45.4627 51.7338C44.7593 52.2889 44.1704 52.8338 43.6009 53.3607L43.6009 53.3607L43.58 53.38L43.5787 53.3813C42.23 54.6298 41.1647 55.6159 39.292 56.1249C38.8654 56.241 38.6147 56.6762 38.732 57.0983C38.8494 57.5204 39.2907 57.7684 39.716 57.6523C41.9707 57.0403 43.284 55.8241 44.6734 54.5368L44.695 54.5167L44.6951 54.5167C45.2417 54.0111 45.8073 53.4879 46.46 52.9724C47.012 52.5384 47.604 52.0965 48.2507 51.8961C48.8454 51.7114 49.444 51.7721 49.8134 52.0557C50.1294 52.2984 50.2507 52.8062 50.0547 53.0621C49.8254 53.3615 49.84 53.7796 50.0907 54.0619C50.3414 54.3442 50.7574 54.4141 51.088 54.2294C51.3254 54.0962 51.5947 54.0263 51.8667 54.0263H51.88C52.1574 54.0276 52.4307 54.1028 52.6694 54.2426C52.908 54.3824 53.1054 54.5816 53.2414 54.8217C53.3774 55.0617 53.448 55.3321 53.444 55.6065C53.4334 56.4652 52.7187 57.3318 51.3214 58.1839C48.5014 59.9065 45.2627 60.9301 41.956 61.1451C41.516 61.1741 41.1814 61.5501 41.2107 61.9867ZM26.072 117.7C26.0227 117.7 25.972 117.695 25.9214 117.686L21.2227 116.795C20.6974 116.691 19.832 116.518 19.3307 115.814C19.1862 115.61 19.0939 115.395 19.0361 115.177C18.4466 115.076 17.8831 114.854 17.3814 114.522C16.7134 114.082 16.184 113.467 15.852 112.744C15.7974 112.626 15.7734 112.496 15.7814 112.367C15.794 112.16 15.8102 111.948 15.8265 111.734L15.8266 111.734L15.8266 111.734L15.8266 111.733L15.8266 111.733L15.8266 111.733L15.8266 111.733L15.8266 111.733L15.8294 111.697C15.968 109.844 16.1107 107.927 14.8147 106.644C14.712 106.542 14.64 106.416 14.604 106.276C14.2891 105.03 14.9831 103.836 16.3413 103.242C16.4018 102.599 16.4933 101.921 16.7099 101.261C16.5288 101.097 16.4271 100.854 16.4533 100.597C16.5113 100.026 16.5684 99.4556 16.6253 98.8867L16.6253 98.8865L16.6253 98.8863L16.6254 98.8861L16.6627 98.5133L16.6663 98.4767C17.529 89.8836 18.344 81.7651 20.2 73.0758L20.2867 72.6893C21.32 68.0819 22.2973 63.7304 24.828 59.5121C24.8387 59.495 24.8493 59.4792 24.86 59.4633L24.8746 59.4427L24.8747 59.4427L24.8747 59.4427C25.0279 59.227 25.8734 58.0369 26.252 57.6167C26.3941 57.4582 26.5863 57.3697 26.7841 57.3537C26.7772 57.3356 26.7705 57.3173 26.764 57.2988C26.496 56.5272 26.74 55.621 27.3854 54.9879C27.8374 54.5447 28.4454 54.2466 29.248 54.0751L29.2947 54.0645C29.3467 54.054 29.416 54.0395 29.468 54.025C29.468 54.023 29.4684 54.0213 29.4687 54.0197C29.469 54.018 29.4694 54.0164 29.4694 54.0144C29.472 53.9933 29.4747 53.9735 29.4787 53.9537L29.4794 53.9501C29.6741 52.8932 29.9991 51.1291 31.552 50.635C32.4774 50.3422 33.868 50.6548 34.7414 52.0293C34.8357 52.1777 34.9195 52.3285 34.9954 52.4806C35.1532 52.1407 35.5391 51.9492 35.9187 52.0451C36.3467 52.152 36.6067 52.5833 36.4973 53.0067C36.3768 53.4804 36.1838 53.7972 35.6839 54.2814C35.7255 54.3943 35.7682 54.5048 35.8134 54.6133C36.0014 55.0604 36.4134 55.8334 37.0614 55.9785C37.492 56.0747 37.7627 56.4981 37.6667 56.9242C37.5694 57.3502 37.1414 57.618 36.7107 57.523C35.708 57.3001 34.864 56.4823 34.3347 55.2213C34.204 54.91 34.096 54.5974 33.9934 54.294L33.9884 54.2795C33.8116 53.7652 33.6443 53.2785 33.3854 52.8721C33.0854 52.3999 32.5 51.9976 32.04 52.1427C31.456 52.3287 31.2254 53.3035 31.0574 54.2109C31.0227 54.4919 30.92 54.7623 30.76 54.9971C30.748 55.0142 30.7347 55.0314 30.7214 55.0485C30.3944 55.4509 29.9363 55.5478 29.631 55.6125L29.628 55.6131L29.5854 55.6223C29.0987 55.7265 28.7387 55.8901 28.5134 56.1104C28.3147 56.3056 28.2134 56.5958 28.2787 56.7844C28.34 56.9611 28.5427 57.1511 28.732 57.312C30.4494 58.7999 32.5387 59.7957 34.7787 60.1941C35.2134 60.2719 35.5027 60.6834 35.424 61.1134C35.352 61.496 35.0147 61.765 34.636 61.765C34.5894 61.765 34.5414 61.7611 34.4934 61.7519C31.968 61.3021 29.612 60.1796 27.6814 58.507C27.6527 58.4826 27.6238 58.4576 27.5947 58.432C27.561 58.5168 27.5117 58.5973 27.4467 58.6693C27.172 58.974 26.4613 59.9606 26.188 60.3458C23.7987 64.3385 22.8507 68.5607 21.848 73.0322L21.7627 73.4108C19.9245 82.0165 19.1138 90.1015 18.2554 98.6621L18.2553 98.6623L18.2547 98.669C18.2093 99.1174 18.164 99.5672 18.1187 100.018C18.5173 100.074 18.912 100.115 19.3213 100.156L19.3429 100.158L19.3432 100.158C19.703 100.194 20.0697 100.231 20.4448 100.281L21.0507 95.1129L21.0552 95.0744C22.1525 85.7832 23.2871 76.1759 25.4947 66.9067C25.596 66.4819 26.0267 66.2168 26.4574 66.3184C26.8867 66.4186 27.1534 66.8447 27.052 67.2707C24.8651 76.4542 23.7359 86.0181 22.6437 95.2682L22.64 95.2989L22.6014 95.6286L21.024 109.083L21.0232 109.09C20.8288 110.748 20.6279 112.462 20.552 114.145C20.5427 114.355 20.5254 114.748 20.6387 114.906C20.772 115.094 21.2467 115.189 21.5294 115.244L26.22 116.132C26.6534 116.213 26.9387 116.629 26.8547 117.058C26.784 117.436 26.4494 117.7 26.072 117.7ZM16.1307 105.717C16.1066 105.114 16.79 104.773 17.0565 104.663C17.9766 104.924 18.9209 105.085 19.8749 105.143L19.4347 108.898L19.4291 108.946L19.4291 108.946C19.2537 110.446 19.0729 111.991 18.9823 113.54C18.7312 113.464 18.4915 113.352 18.2707 113.206C17.904 112.963 17.6027 112.638 17.3934 112.255C17.3993 112.162 17.4063 112.069 17.4133 111.976L17.4133 111.976C17.4174 111.922 17.4215 111.868 17.4254 111.813L17.4255 111.811C17.5695 109.88 17.7474 107.494 16.1307 105.717ZM20.2604 101.854L20.0595 103.568C19.3471 103.531 18.6397 103.427 17.9467 103.259C18.0034 102.696 18.0886 102.139 18.2716 101.635C18.573 101.671 18.8682 101.701 19.1587 101.73L19.2202 101.737L19.2203 101.737L19.2204 101.737C19.5743 101.773 19.9172 101.808 20.2604 101.854ZM28.6453 118.069C32.4213 118.7 36.2773 119.015 40.2627 119.015C45.0913 119.015 50.109 118.551 55.3918 117.623C56.1087 118.169 56.9522 118.457 57.8814 118.457C57.9814 118.457 58.084 118.454 58.1867 118.447C59.6004 118.355 60.8294 117.595 61.6529 116.383C61.7227 116.381 61.7933 116.369 61.864 116.349C62.3613 116.196 62.932 116.125 63.5347 116.051C64.92 115.881 66.4893 115.687 67.5947 114.375C67.644 114.317 67.684 114.252 67.7147 114.182C67.8733 113.817 67.9413 113.413 67.9107 113.016C67.908 112.982 67.9027 112.949 67.896 112.916C67.4987 111.03 66.3297 107.796 65.1991 104.669L65.1987 104.668C64.4107 102.492 63.668 100.435 63.3293 99.2111C63.3065 99.1281 63.2712 99.0518 63.2259 98.9837C63.0944 89.4466 62.7409 80.2684 60.472 70.5933C60.372 70.1673 59.9427 69.9022 59.512 70.0011C59.0814 70.1 58.8134 70.5247 58.9134 70.9508C61.4451 81.75 61.5547 91.9953 61.6707 102.842V102.842L61.6707 102.845L61.6734 103.046L51.5787 102.882C50.0787 91.2876 49.5614 79.4942 50.04 67.8168C50.0587 67.3802 49.7147 67.0108 49.2734 66.9937C48.832 66.9779 48.4587 67.3155 48.4414 67.7521C47.9494 79.7461 48.5014 91.8627 50.0814 103.764C50.1223 104.071 50.3365 104.317 50.6189 104.412C50.5062 105.222 50.4768 106.042 50.532 106.86C50.532 107.008 50.5573 107.153 50.6093 107.291C50.6693 107.45 50.7587 107.592 50.876 107.714C50.8827 107.721 50.8896 107.727 50.8965 107.734L50.9105 107.747C50.4272 108.109 50.027 108.571 49.8507 109.128C49.6987 109.609 49.652 110.358 50.292 111.189C50.884 111.96 51.7014 112.423 52.4227 112.83C52.5654 112.911 52.7067 112.991 52.848 113.074C53.0453 113.189 53.261 113.967 53.3554 114.307L53.3554 114.307L53.3574 114.314C53.4227 114.551 53.4854 114.776 53.5587 114.976C53.7279 115.436 53.9287 115.854 54.158 116.228C45.0747 117.735 36.8046 117.826 28.9107 116.509C28.4747 116.435 28.0627 116.727 27.9893 117.158C27.916 117.588 28.2093 117.997 28.6453 118.069ZM53.3838 108.014C53.3041 108.24 53.1219 108.428 52.8734 108.506C52.132 108.744 51.5027 109.204 51.3774 109.601C51.3534 109.676 51.2907 109.876 51.564 110.23C51.9598 110.744 52.57 111.09 53.215 111.455L53.216 111.456L53.3249 111.518L53.3253 111.518C53.4394 111.582 53.5532 111.647 53.6654 111.713C54.4175 112.154 54.6845 113.117 54.899 113.891L54.9 113.895C54.956 114.099 55.0107 114.293 55.0614 114.433C55.4934 115.605 56.3654 116.976 58.08 116.866C59.2067 116.793 60.5667 115.955 61.0134 113.825C61.3556 112.187 61.0461 110.424 60.7464 108.718L60.7454 108.712L60.7296 108.622C60.6989 108.447 60.6683 108.272 60.6387 108.097C60.6328 108.063 60.6292 108.028 60.628 107.994L53.3838 108.014ZM62.0166 107.431C62.1178 107.54 62.1894 107.678 62.216 107.835C62.2507 108.037 62.2854 108.239 62.3214 108.442L62.3225 108.448C62.6475 110.3 62.9836 112.214 62.58 114.147C62.548 114.3 62.5113 114.45 62.4701 114.597C62.7595 114.551 63.0493 114.515 63.3347 114.48C64.5347 114.333 65.5787 114.203 66.28 113.455C66.3067 113.367 66.3187 113.273 66.316 113.181C65.9286 111.393 64.7438 108.114 63.6956 105.215L63.6956 105.214L63.6907 105.201L63.6558 105.104L63.6557 105.104C63.5231 104.737 63.3918 104.374 63.2634 104.017C63.2311 104.165 63.1559 104.302 63.0454 104.411C62.8974 104.558 62.6934 104.642 62.4827 104.642H62.4694L62.2007 104.637L62.2667 106.309C62.2735 106.514 62.289 107.02 62.0166 107.431ZM60.5986 104.611L52.2262 104.475C52.1261 105.124 52.088 105.782 52.112 106.438L60.6693 106.414C60.6693 106.4 60.6693 106.384 60.668 106.367L60.5986 104.611Z" fill="black"/>
</g>
<path d="M24.1973 46.8507C23.98 47.2069 23.672 47.501 23.3053 47.7028C22.9373 47.9047 22.5227 48.0075 22.1027 48.0023C21.6827 47.9957 21.2707 47.8809 20.9093 47.6685C20.548 47.4562 20.2493 47.1541 20.0413 46.7914C19.6347 46.0778 19.4587 45.0384 18.6467 44.8814C17.972 44.7495 17.4213 45.3682 16.9133 45.8259C16.3067 46.368 15.52 46.7584 14.7027 46.7386C13.8853 46.7188 13.0547 46.2229 12.804 45.4526C12.4453 44.3538 13.292 43.2221 13.2853 42.0693C13.3013 41.758 13.1973 41.4533 12.9947 41.2145C12.524 40.7317 11.7187 40.9758 11.044 40.9125C9.63334 40.7806 8.77734 39.0948 9.124 37.7362C9.47067 36.3776 10.6613 35.3804 11.924 34.7473C13.1867 34.1142 14.5773 33.7514 15.8347 33.1025C17.3933 32.2939 18.696 31.0751 19.6 29.5806C20.304 28.4159 20.748 27.1075 21.4947 25.9691C22.828 23.9431 25.0187 22.6109 27.2973 21.739C29.576 20.8671 31.9867 20.3962 34.32 19.6826C36.072 19.1471 37.8493 18.4665 39.6747 18.6274C40.884 18.7342 42.1573 19.3225 42.608 20.4358L45.7347 21.524C49.4307 21.6717 52.968 23.9167 54.644 27.18C55.22 28.2985 55.6013 29.5411 56.428 30.4934C57.5613 31.7993 59.4947 32.5326 59.9587 34.1867C60.5733 36.3697 58.1987 38.3179 58.052 40.5787C57.9693 41.849 58.5853 43.2419 57.9187 44.3301C57.3413 45.2692 56.052 45.5238 55.32 46.3522C54.4467 47.3388 54.476 49.01 53.348 49.6985C52.904 49.9689 51.1867 50.2881 50.7147 50.0731C48.7787 49.1933 48.5747 50.3805 46.9373 50.5335" fill="white"/>
<path d="M45.2854 51.7615C45.1334 49.9558 45.472 48.4072 46.2667 46.7743C46.4467 46.4049 46.8334 46.4089 47.216 46.2888C47.556 46.1833 47.8894 46.062 48.2187 45.9248C48.8867 45.6504 49.5174 45.2956 50.0987 44.8696C51.248 44.0109 52.144 42.8053 52.48 41.4071C52.7854 40.1395 52.5707 38.6305 51.1467 37.9169C50.1427 37.4157 49.2427 37.5938 47.7134 38.9234L46.5254 38.6266C45.008 38.5356 43.812 37.2218 43.3147 35.8025C42.8174 34.3833 42.8494 32.8439 42.7387 31.3455C42.6894 30.6768 42.5827 29.9526 42.0934 29.4883C41.56 28.9844 40.748 28.9462 40.012 28.9356L38.8387 28.5399C38.3867 28.0558 37.8334 27.6746 37.2187 27.4201C36.604 27.1668 35.9414 27.0468 35.2747 27.0692C34.6094 27.0916 33.956 27.2552 33.36 27.5493C32.764 27.8435 32.2387 28.2616 31.82 28.7747C31.32 29.3881 30.9427 30.1597 30.22 30.4961C29.4974 30.8324 28.6774 30.6372 27.892 30.6517C27.1067 30.6662 26.1707 31.087 26.1507 31.8626L25.1827 33.3135C24.3227 35.5018 23.8054 37.4777 23.6747 38.6741C23.3454 41.6867 23.96 45.0344 26.2894 47.1805C27.5307 48.3228 29.068 48.8847 30.712 49.1709C32.4267 49.4704 34.2667 49.7434 35.9307 49.0707C35.8427 50.4438 35.8294 51.4238 35.8934 52.7983" fill="white"/>
<path d="M22.1374 48.7976C22.1214 48.7976 22.1067 48.7976 22.0907 48.7976C21.532 48.7897 20.9814 48.6367 20.5 48.3531C20.0187 48.0708 19.62 47.6672 19.344 47.1858C19.2134 46.9563 19.1107 46.7175 19.0107 46.488C18.8507 46.1174 18.6707 45.6979 18.492 45.6636C18.3054 45.6267 17.9094 45.9947 17.6467 46.2374C17.58 46.2994 17.5147 46.3601 17.4494 46.4181C16.612 47.1607 15.632 47.5564 14.6827 47.5353C13.4694 47.5076 12.384 46.7531 12.0414 45.7005C11.7547 44.8247 12.0067 44.0003 12.2294 43.2722C12.36 42.8422 12.484 42.4373 12.484 42.0745C12.484 42.0613 12.484 42.0468 12.4854 42.0336C12.4907 41.9347 12.4614 41.8384 12.404 41.7579C12.3 41.6867 11.9547 41.7012 11.7 41.7105C11.4654 41.7197 11.2227 41.7289 10.968 41.7052C10.1614 41.63 9.43469 41.196 8.92269 40.4811C8.32269 39.6435 8.10269 38.521 8.34802 37.5502C8.70002 36.1534 9.84135 34.9082 11.5627 34.0469C12.2134 33.7211 12.888 33.4652 13.54 33.2185C14.2187 32.9613 14.8587 32.7186 15.464 32.406C16.8947 31.6647 18.0907 30.5475 18.9214 29.1757C19.2254 28.6731 19.4787 28.1389 19.7467 27.5731C20.068 26.8977 20.3987 26.1986 20.8307 25.5391C22.0974 23.6107 24.1787 22.0846 27.016 21.0016C28.476 20.445 29.9934 20.0453 31.46 19.6575C32.328 19.428 33.2254 19.1919 34.0907 18.9268C34.3307 18.8529 34.5707 18.7777 34.8107 18.7012C36.388 18.2013 38.0187 17.6856 39.7534 17.8399C41.0894 17.9586 42.7387 18.6261 43.3573 20.1403C43.5227 20.5453 43.3253 21.0069 42.9147 21.1705C42.5053 21.334 42.0387 21.1388 41.8733 20.7326C41.524 19.8778 40.436 19.49 39.6094 19.4162C38.1974 19.2909 36.7894 19.7367 35.2974 20.2089C35.052 20.2867 34.8067 20.3645 34.5627 20.4397C33.668 20.7128 32.7547 20.9542 31.872 21.1876C30.4454 21.5635 28.9707 21.9527 27.592 22.479C25.0747 23.4392 23.2507 24.7596 22.172 26.4018C21.8 26.9689 21.5054 27.5889 21.1947 28.2458C20.9214 28.8209 20.6387 29.4171 20.2934 29.9882C19.312 31.6106 17.8974 32.9323 16.204 33.8095C15.516 34.1643 14.8014 34.4347 14.1107 34.6972C13.468 34.9399 12.8614 35.1707 12.284 35.4596C11.5307 35.8368 10.22 36.6599 9.89869 37.9341C9.76535 38.4617 9.89469 39.1027 10.2267 39.567C10.3947 39.8018 10.6867 40.0907 11.1174 40.1303C11.2654 40.1448 11.4454 40.1369 11.636 40.1303C12.208 40.1078 12.9907 40.0775 13.5694 40.6711C13.5814 40.6843 13.5934 40.6961 13.6054 40.7106C13.936 41.0984 14.1054 41.5891 14.084 42.0956C14.08 42.6852 13.9107 43.2405 13.76 43.7312C13.5827 44.3103 13.4307 44.8089 13.564 45.2151C13.6974 45.624 14.1934 45.9419 14.72 45.9538C15.2627 45.963 15.848 45.7137 16.3787 45.2428C16.4347 45.1927 16.4947 45.1373 16.556 45.0806C17.0867 44.5899 17.8147 43.9172 18.8027 44.1111C19.812 44.3063 20.2 45.2085 20.484 45.8681C20.5707 46.0672 20.6507 46.2558 20.7387 46.4089C20.876 46.6502 21.076 46.8521 21.3174 46.9932C21.5587 47.1343 21.8334 47.2121 22.1134 47.2161C22.3947 47.2201 22.6707 47.1515 22.916 47.0169C23.1614 46.8824 23.3667 46.6859 23.512 46.4484C23.74 46.0738 24.232 45.9538 24.6107 46.1793C24.9894 46.4049 25.1107 46.8916 24.8827 47.2662C24.5934 47.7398 24.1827 48.1315 23.6934 48.4006C23.2174 48.6604 22.68 48.7976 22.1374 48.7976Z" fill="black"/>
<path d="M46.944 51.3262C46.536 51.3262 46.188 51.0189 46.148 50.6087C46.1067 50.1734 46.4293 49.7869 46.8693 49.746C47.3333 49.7025 47.6373 49.5548 47.9893 49.382C48.692 49.039 49.4867 48.6499 51.0293 49.3424C51.3853 49.4163 52.6507 49.1854 52.9387 49.0232C53.3427 48.7765 53.548 48.2318 53.7867 47.6026C54.0053 47.0235 54.2533 46.3666 54.7267 45.8311C55.1413 45.3629 55.668 45.0555 56.1347 44.7864C56.616 44.5068 57.032 44.2654 57.244 43.9198C57.5293 43.4529 57.448 42.8053 57.3547 42.0547C57.2933 41.5627 57.2293 41.0536 57.2627 40.5286C57.3373 39.3797 57.8653 38.3733 58.376 37.3999C58.9573 36.2919 59.46 35.3343 59.1973 34.4004C58.9747 33.605 58.2467 33.0457 57.404 32.3994C56.86 31.9813 56.2987 31.5499 55.8293 31.0105C55.176 30.2586 54.7867 29.3854 54.408 28.5412C54.252 28.1917 54.104 27.8606 53.9387 27.5401C52.4027 24.5498 49.096 22.4512 45.7093 22.3154C45.268 22.2982 44.924 21.9289 44.9427 21.4923C44.96 21.0557 45.336 20.7167 45.7747 20.7339C49.7827 20.8935 53.548 23.2836 55.3653 26.8225C55.5493 27.18 55.7133 27.5467 55.872 27.9002C56.2173 28.6731 56.544 29.4039 57.044 29.979C57.4067 30.3971 57.8827 30.7625 58.3853 31.149C59.3173 31.8652 60.3733 32.6764 60.7387 33.9756C61.1707 35.5097 60.44 36.9013 59.796 38.1293C59.3413 38.9959 58.912 39.8137 58.8587 40.6302C58.8347 41.0061 58.8867 41.4203 58.9413 41.8595C59.056 42.771 59.1853 43.8038 58.6107 44.7403C58.188 45.4288 57.5267 45.8127 56.9427 46.1503C56.5467 46.3798 56.1733 46.5962 55.9293 46.8732C55.648 47.191 55.472 47.6593 55.284 48.1553C54.9867 48.944 54.6493 49.8383 53.7747 50.3726C53.1973 50.7234 51.184 51.1561 50.3867 50.792C49.52 50.3976 49.2627 50.5242 48.6973 50.8012C48.288 51.0017 47.7773 51.251 47.02 51.3223C46.9947 51.3249 46.9693 51.3262 46.944 51.3262ZM51.056 49.3543C51.056 49.3556 51.056 49.3556 51.056 49.3543C51.056 49.3556 51.056 49.3556 51.056 49.3543Z" fill="black"/>
<path d="M26.1387 32.6553C26.132 32.6553 26.1253 32.6553 26.1173 32.6553C25.676 32.6448 25.3267 32.2807 25.3373 31.8441C25.3693 30.5871 26.6627 29.884 27.864 29.8616C28.1173 29.8563 28.3613 29.8708 28.5973 29.884C29.0987 29.913 29.532 29.9368 29.8667 29.7811C30.2067 29.6229 30.4707 29.2548 30.7747 28.8275C30.904 28.6468 31.036 28.4608 31.1853 28.2788C31.6787 27.6733 32.2867 27.1906 32.9907 26.8423C33.6947 26.4954 34.4507 26.3055 35.236 26.2791C36.0227 26.2527 36.7893 26.3912 37.5147 26.6906C38.24 26.9901 38.88 27.4319 39.4133 28.0031C39.7133 28.3236 39.6933 28.8248 39.3693 29.1216C39.0453 29.4184 38.5387 29.3986 38.2387 29.0781C37.8613 28.6745 37.4107 28.3632 36.8973 28.1521C36.3853 27.9411 35.8427 27.8422 35.2893 27.8619C34.7347 27.8804 34.2013 28.0136 33.704 28.259C33.2067 28.5043 32.7787 28.8459 32.4293 29.2733C32.3133 29.4158 32.2 29.5741 32.0813 29.7416C31.7013 30.2745 31.2707 30.8773 30.548 31.2136C29.8467 31.5407 29.1347 31.4998 28.5067 31.4642C28.2907 31.4524 28.0867 31.4405 27.8947 31.4444C27.3947 31.4537 26.9427 31.6977 26.9387 31.8837C26.928 32.3137 26.572 32.6553 26.1387 32.6553Z" fill="black"/>
<path d="M46.5147 39.414C46.4987 39.414 46.4814 39.414 46.4654 39.4127C45.1734 39.3349 43.3707 38.4103 42.5467 36.0584C42.1174 34.833 42.0507 33.5694 41.9854 32.3467C41.9694 32.034 41.9521 31.7122 41.9294 31.3996C41.8894 30.8614 41.8134 30.3272 41.5281 30.0555C41.2214 29.764 40.6241 29.7323 39.9894 29.7231C39.5481 29.7165 39.1947 29.3577 39.2014 28.9198C39.2081 28.4832 39.5721 28.1337 40.0134 28.1403C40.7441 28.1508 41.8494 28.1666 42.6361 28.9132C43.3134 29.5569 43.4667 30.4723 43.5267 31.2848C43.5507 31.612 43.5681 31.943 43.5854 32.2636C43.6467 33.4269 43.7054 34.527 44.0601 35.54C44.4414 36.6296 45.3641 37.7613 46.5627 37.8338C47.0041 37.8602 47.3401 38.2348 47.3134 38.6714C47.2867 39.0909 46.9334 39.414 46.5147 39.414Z" fill="black"/>
<path d="M29.124 36.9461C29.6395 36.9461 30.0573 36.4442 30.0573 35.8249C30.0573 35.2057 29.6395 34.7038 29.124 34.7038C28.6085 34.7038 28.1907 35.2057 28.1907 35.8249C28.1907 36.4442 28.6085 36.9461 29.124 36.9461Z" fill="black"/>
<path d="M33.6573 37.2561C34.1728 37.2561 34.5907 36.7541 34.5907 36.1349C34.5907 35.5157 34.1728 35.0137 33.6573 35.0137C33.1419 35.0137 32.724 35.5157 32.724 36.1349C32.724 36.7541 33.1419 37.2561 33.6573 37.2561Z" fill="black"/>
<path d="M45.2787 51.7575C44.868 51.7575 44.5173 51.4462 44.4827 51.0321C44.3133 49.0456 44.704 48.1368 45.5333 46.4273C45.8373 45.8034 46.412 45.6662 46.756 45.5845C46.8307 45.566 46.9013 45.5502 46.9627 45.5304C47.28 45.4314 47.5933 45.318 47.896 45.1914C48.508 44.9408 49.0827 44.6176 49.6107 44.2298C50.6747 43.4344 51.416 42.3647 51.6907 41.2198C51.832 40.6434 52.024 39.2425 50.7747 38.6186C50.2293 38.3456 49.6947 38.2388 48.2293 39.5129C47.8973 39.8018 47.392 39.7688 47.1 39.4404C46.808 39.112 46.8413 38.612 47.1733 38.3232C49.2773 36.4937 50.4933 36.7047 51.4947 37.2046C53.0467 37.9802 53.7173 39.6594 53.2453 41.5878C52.8853 43.0862 51.9347 44.4752 50.5693 45.4948C49.932 45.963 49.2413 46.3508 48.5133 46.6489C48.168 46.7927 47.8067 46.9246 47.4427 47.0367C47.332 47.071 47.2253 47.0974 47.132 47.1198C47.0733 47.1343 46.9973 47.1515 46.948 47.1673C46.1813 48.7501 45.944 49.345 46.0773 50.8962C46.1147 51.3315 45.788 51.714 45.348 51.7509C45.324 51.7562 45.3013 51.7575 45.2787 51.7575Z" fill="black"/>
<path d="M35.8854 52.9249C35.46 52.9249 35.1067 52.5938 35.0867 52.1691C35.044 51.2405 35.0347 50.7735 35.0614 50.1364C33.4587 50.4425 31.8267 50.1615 30.568 49.9439C28.5347 49.589 26.9547 48.8728 25.7374 47.7529C23.5 45.6913 22.456 42.3489 22.872 38.5804C23.028 37.1835 23.6094 35.1047 24.4294 33.0193C24.5894 32.6118 25.0534 32.4099 25.4654 32.5682C25.8774 32.7265 26.0814 33.1855 25.9214 33.5931C25.012 35.9067 24.572 37.7758 24.4627 38.7532C24.1014 42.0178 24.9627 44.8761 26.828 46.5935C27.8254 47.5116 29.1014 48.0801 30.844 48.3834C32.6254 48.6908 34.216 48.8979 35.6214 48.3294C35.876 48.2265 36.1667 48.2608 36.3907 48.4191C36.6147 48.5787 36.74 48.8398 36.7227 49.1115C36.6374 50.4385 36.6227 50.7313 36.6867 52.0926C36.7067 52.5292 36.3654 52.8998 35.924 52.9196C35.9094 52.9249 35.8974 52.9249 35.8854 52.9249Z" fill="black"/>
<defs>
<clipPath id="clip0_4_400">
<rect width="80" height="79.142" fill="white" transform="translate(0 49.8595)"/>
</clipPath>
</defs>
</svg>
