<svg width="628" height="354" viewBox="0 0 628 354" fill="none" xmlns="http://www.w3.org/2000/svg">
<path d="M373.5 107.5C373.5 163.281 479.096 247.5 362.096 309C159.096 373.939 56.1075 266.5 36.5 231C-58.5 59 54.3517 0.5 132.5 0.5C210.648 0.5 373.5 51.7192 373.5 107.5Z" fill="#4640BE"/>
<path d="M625.5 182C646 399.5 474.176 311 419.5 311C364.824 311 249.5 137.586 249.5 86.5C249.5 35.4137 443.824 10.5 498.5 10.5C591.5 10.5 625.5 130.914 625.5 182Z" fill="#8656EC"/>
<g clip-path="url(#clip0_84_236)">
<path d="M298.123 154C298.423 157.367 299.8 164.973 304.923 163.833L305.473 164.667C305.223 169.89 302.577 173.573 298.43 177.39C294.217 181.207 288.843 183.5 283.173 183.903C278.173 184.27 272.857 183.073 269.117 179.72C265.377 176.367 263.41 171.72 265.887 167.737H266.247C267.373 167.77 268.41 167.18 269.363 166.58C270.577 165.813 273.08 162.67 273.83 161.767C274.83 160.47 275.237 155.553 275.75 154H298.123V154Z" fill="white"/>
<path d="M227.35 290.58C225.017 291.45 223.017 293.45 223.683 296.117C228.017 300.45 227.017 306.783 226.683 312.117C227.36 313.603 228.44 314.87 229.797 315.777C231.157 316.683 232.74 317.193 234.373 317.247L237.167 291.79L227.35 290.58Z" fill="white"/>
<path d="M305.753 162.037C311.65 163.617 316.223 168.16 319.907 172.81C323.923 177.893 327.077 183.603 329.24 189.71C330.45 193.117 332.363 196.957 333.153 200.483L334.207 203.687C339.873 228.127 340.92 253.327 341.3 278.46L341.633 279.267C343.667 286.783 351.333 305.783 353 313.783C353.053 314.467 352.94 315.153 352.667 315.783C349.333 319.783 343.667 318.783 339.283 320.14L323.793 323.227C301.623 327.203 293.707 330.173 271.5 326.43L270.5 326.18C269.04 313.9 267.963 301.14 267.34 288.283L267.187 288.95C265.083 301.243 263.113 312.617 262.7 325.08L262.637 325.61C257.86 324.697 243.42 322.113 238.637 321.2C237.343 320.95 235.923 320.623 235.167 319.533C234.54 318.64 234.543 317.463 234.59 316.373C234.78 312.04 235.28 307.737 235.78 303.433L238.067 283.737H237.893C234.507 283.327 231.787 282.917 228.4 282.507C229.803 267.02 231.603 251.577 233.8 236.173C235.713 222.757 237.933 209.337 241.88 196.373C245.387 184.853 254.617 169.607 265.18 163.83L271.757 164.88C276.09 169.187 283.38 170.1 288.627 166.99L305.753 162.037Z" fill="black"/>
<path d="M317.203 299C313.993 300.037 309.84 304.247 312.553 307.807C314.047 309.77 316.303 310.827 318.373 312.057C319.97 313.007 320.39 316.203 321.007 317.9C322.567 322.177 325.597 325.677 330.56 325.353C335.613 325.02 338.757 320.717 339.717 316.073C340.76 311.04 339.09 303.74 338.253 298.76L317.203 299Z" fill="white"/>
<path fill-rule="evenodd" clip-rule="evenodd" d="M270.693 216.847L270.953 167.477C270.953 165.547 271.333 158.78 271.923 157.843C267.59 160.683 264.947 165.39 262.453 169.917C261.023 172.513 259.547 175.297 259.743 178.25C259.888 180.461 260.94 182.44 261.994 184.425C262.949 186.222 263.907 188.025 264.197 190.01C264.599 192.765 263.676 195.417 262.746 198.091C262.05 200.089 261.351 202.099 261.197 204.173C261.013 206.773 262.033 212.507 262.717 215.033L267.697 233.42L267.527 250.183C273.313 238.117 280.073 226.54 287.743 215.573C290.13 212.153 292.743 208.353 292.23 204.213C292.117 203.312 291.86 202.408 291.605 201.509C291.105 199.749 290.61 198.008 291.21 196.333C291.597 195.253 292.4 194.383 293.18 193.543L304.45 181.457C305.22 180.63 306.013 179.763 306.35 178.683C306.73 177.45 306.46 176.12 306.187 174.857L302.753 159.037C302.45 157.64 301.867 155.96 300.453 155.733C297.063 157.967 294.053 161.297 291.417 164.783C289.721 167.029 288.158 169.349 286.715 171.733L288.627 166.99C283.38 170.1 276.09 169.187 271.757 164.88V208.833L273.996 203.28C272.774 207.886 271.716 212.555 270.75 217.24L270.693 216.847ZM227.963 290.463C228.163 287.977 228.383 285.43 229.45 283.177L237.613 284.067L236.71 291.797C233.747 291.777 230.8 291.327 227.963 290.463ZM313.577 298.03C313.393 295.433 313.567 292.827 314.087 290.277L338.667 290.637L338.913 296.78C338.933 297.513 338.883 298.4 338.247 298.763C337.933 298.907 337.59 298.967 337.247 298.94L314.58 299.003C314.337 299.033 314.09 298.977 313.88 298.85C313.777 298.74 313.697 298.61 313.643 298.47C313.593 298.33 313.57 298.18 313.577 298.03Z" fill="white"/>
<path fill-rule="evenodd" clip-rule="evenodd" d="M271.18 328.4C278.503 329.637 284.3 330.153 289.55 330.153C298.027 330.153 305.083 328.803 314.85 326.93L315.638 326.78C318.17 326.297 320.798 325.796 323.715 325.27C325.509 326.646 327.62 327.373 329.947 327.373C330.193 327.373 330.44 327.366 330.68 327.346C334.21 327.112 337.28 325.195 339.339 322.139C339.517 322.134 339.695 322.104 339.873 322.047C341.117 321.66 342.54 321.483 344.047 321.297C347.513 320.867 351.44 320.377 354.203 317.06C354.327 316.913 354.427 316.75 354.503 316.573C354.9 315.65 355.07 314.63 354.993 313.627C354.987 313.543 354.973 313.457 354.957 313.373C353.974 308.647 351.085 300.56 348.284 292.72L348.284 292.72L348.284 292.719L348.253 292.633L348.191 292.459C346.234 286.98 344.391 281.821 343.557 278.743C343.503 278.545 343.421 278.363 343.317 278.198C343.066 253.851 342.47 230.595 336.787 206.093C336.537 205.017 335.463 204.347 334.387 204.597C333.31 204.847 332.64 205.92 332.89 206.997C338.9 232.913 339.13 257.603 339.37 283.743L339.371 283.813L339.371 283.815L339.371 283.818C339.384 285.353 339.397 286.895 339.413 288.443L314.177 288.03C310.427 258.73 309.133 228.923 310.33 199.417C310.377 198.313 309.517 197.38 308.413 197.337C307.307 197.297 306.377 198.15 306.333 199.253C305.103 229.563 306.483 260.18 310.433 290.26C310.536 291.037 311.076 291.662 311.786 291.898C311.508 293.943 311.439 296.013 311.577 298.077C311.573 298.447 311.64 298.81 311.77 299.167C311.917 299.563 312.14 299.92 312.43 300.227C312.459 300.256 312.488 300.284 312.518 300.312C311.306 301.226 310.302 302.397 309.86 303.807C309.477 305.023 309.36 306.916 310.96 309.016C312.443 310.966 314.49 312.136 316.297 313.166C316.382 313.216 316.467 313.264 316.553 313.313C316.82 313.467 317.087 313.62 317.35 313.776C317.843 314.071 318.382 316.036 318.618 316.895L318.623 316.913C318.787 317.513 318.943 318.076 319.127 318.587C319.553 319.755 320.059 320.818 320.638 321.768C318.291 322.202 316.1 322.62 314.1 323.003L314.094 323.004C298.874 325.917 290.431 327.533 272.337 324.537C270.998 313.01 270.027 301.249 269.431 289.562L269.487 289.243C269.553 288.853 269.503 288.47 269.36 288.131C268.763 275.766 268.588 263.499 268.847 251.7C269.047 251.527 269.217 251.31 269.34 251.053C275.06 239.12 281.807 227.57 289.393 216.723C291.813 213.257 294.827 208.94 294.227 203.98C294.097 202.913 293.813 201.91 293.537 200.94C293.1 199.403 292.723 198.077 293.103 197.013C293.35 196.319 294.001 195.617 294.63 194.938L294.653 194.913L305.923 182.827L305.929 182.82L305.929 182.82C306.761 181.925 307.798 180.81 308.27 179.28C308.814 177.517 308.433 175.751 308.153 174.455L308.15 174.44L305.92 164.168C311.407 165.917 315.613 170.612 318.337 174.05C322.227 178.97 325.26 184.463 327.353 190.38C327.79 191.603 328.313 192.887 328.82 194.127L328.834 194.162C329.763 196.438 330.722 198.788 331.2 200.92C331.41 201.85 332.233 202.483 333.15 202.483C333.297 202.483 333.443 202.467 333.59 202.433C334.667 202.19 335.343 201.12 335.103 200.043C334.55 197.573 333.52 195.05 332.523 192.61C332.01 191.357 331.527 190.173 331.123 189.04C328.883 182.71 325.637 176.833 321.473 171.567C318.283 167.54 313.237 161.97 306.27 160.103C305.851 159.991 305.428 160.02 305.051 160.162L304.717 158.623C304.093 155.72 302.767 154.087 300.777 153.767C300.283 153.687 299.777 153.793 299.36 154.07C296.223 156.133 293.107 159.247 289.827 163.583C289.475 164.049 289.128 164.519 288.788 164.991C288.399 164.966 288 165.053 287.64 165.267C283.383 167.792 277.365 167.161 273.649 163.881C274.003 162.608 274.403 161.446 274.617 161.077C275.12 160.28 274.997 159.243 274.327 158.583C273.657 157.923 272.617 157.82 271.83 158.337C269.907 159.597 268.134 160.8 266.529 162.114C266.305 162.148 266.083 162.222 265.873 162.337C254.247 168.697 243.39 184.653 240 195.79C235.987 208.973 233.713 222.853 231.853 235.89C229.663 251.25 227.84 266.87 226.44 282.327C226.383 282.938 226.609 283.512 227.012 283.917C226.466 285.59 226.238 287.307 226.086 288.934C222.691 290.434 220.956 293.451 221.743 296.6C221.833 296.953 222.013 297.273 222.27 297.53C225.51 300.773 225.153 305.617 224.807 310.3L224.8 310.391C224.759 310.933 224.718 311.469 224.687 311.993C224.667 312.32 224.727 312.647 224.863 312.947C225.693 314.773 227.017 316.327 228.687 317.44C229.94 318.28 231.351 318.841 232.826 319.095C232.971 319.647 233.202 320.191 233.563 320.707C234.805 322.474 236.884 322.899 238.287 323.185L238.293 323.187C240.437 323.595 244.561 324.347 248.806 325.12L248.814 325.122L250.507 325.43C251.399 325.593 252.297 325.757 253.183 325.918L253.208 325.923L253.211 325.923C256.918 326.599 260.4 327.234 262.293 327.597C262.417 327.62 262.54 327.633 262.667 327.633C263.087 327.633 263.503 327.5 263.85 327.243C264.3 326.917 264.59 326.417 264.657 325.867L264.72 325.337C264.727 325.28 264.73 325.223 264.733 325.167C264.944 318.821 265.637 312.744 266.551 306.655C267.091 313.283 267.75 319.888 268.527 326.413C268.623 327.237 269.22 327.917 270.027 328.117L271.027 328.367C271.077 328.38 271.13 328.39 271.18 328.4ZM258.694 173.034C251.842 180.055 246.054 189.628 243.823 196.953C240.107 209.157 237.933 221.57 235.81 236.453C233.72 251.107 231.967 266.003 230.6 280.76C231.421 280.866 232.211 280.971 232.987 281.075L232.995 281.076L233 281.077L233.004 281.077L233.447 281.137C234.385 281.262 235.344 281.39 236.344 281.519L237.77 269.227L237.773 269.2C240.532 245.428 243.385 220.844 248.98 197.107C249.233 196.033 250.31 195.367 251.387 195.62C252.46 195.873 253.127 196.95 252.873 198.027C247.331 221.544 244.491 246.015 241.744 269.679L241.743 269.687L237.8 303.687C237.313 307.88 236.81 312.22 236.62 316.483C236.597 317.013 236.553 318.007 236.837 318.407C237.165 318.871 238.297 319.104 239.057 319.261L239.07 319.263C241.415 319.712 246.251 320.592 250.972 321.451L250.996 321.455L251.011 321.458L251.021 321.46L251.223 321.497C254.687 322.127 258.24 322.773 260.807 323.25C261.293 312.897 262.973 303.29 264.747 293.15C264.84 292.614 264.934 292.076 265.028 291.537L265.028 291.534L265.029 291.531L265.03 291.528L265.03 291.525L265.032 291.516C265.158 290.792 265.285 290.067 265.411 289.338C264.445 270.082 264.494 251.035 265.603 233.563C265.608 233.51 265.613 233.458 265.621 233.405L260.787 215.557C260.103 213.033 258.99 207.027 259.203 204.033C259.377 201.69 260.13 199.527 260.86 197.433L260.862 197.427C261.731 194.929 262.553 192.568 262.22 190.3C261.98 188.657 261.13 187.057 260.23 185.363L260.222 185.348C259.091 183.216 257.923 181.014 257.75 178.38C257.622 176.474 258.051 174.681 258.694 173.034ZM269.697 233.375L269.857 232.543L269.857 232.542C273.93 210.333 278.547 185.16 293.017 165.99C295.603 162.567 298.04 160.007 300.423 158.207C300.54 158.477 300.677 158.873 300.803 159.463L304.237 175.283L304.241 175.303C304.446 176.258 304.678 177.335 304.443 178.097C304.242 178.749 303.618 179.421 303.011 180.074L302.99 180.097L291.717 192.187L291.699 192.206C290.875 193.096 289.853 194.201 289.33 195.663C288.517 197.933 289.137 200.113 289.683 202.033C289.93 202.893 290.16 203.703 290.25 204.46C290.667 207.903 288.247 211.373 286.11 214.433C279.86 223.373 274.167 232.783 269.137 242.49C269.258 239.661 269.404 236.865 269.577 234.107C269.661 233.876 269.703 233.628 269.697 233.375ZM267.309 224.344L264.647 214.513C263.953 211.947 263.033 206.533 263.19 204.323C263.323 202.512 263.959 200.687 264.631 198.755L264.633 198.75L264.635 198.745C265.624 195.9 266.646 192.961 266.173 189.723C265.834 187.4 264.78 185.415 263.761 183.498L263.757 183.49L263.74 183.459C262.77 181.627 261.853 179.896 261.737 178.12C261.587 175.84 262.713 173.59 264.203 170.883C265.517 168.5 267.197 166.71 269.253 165.053C269.07 165.973 268.953 166.823 268.953 167.467L268.693 216.837C268.693 216.948 268.701 217.057 268.718 217.164C268.224 219.572 267.758 221.969 267.309 224.344ZM272.781 200.126C275.685 189.818 279.537 179.688 285.155 170.467C284.029 170.71 282.876 170.83 281.723 170.83C278.644 170.83 275.556 169.979 272.949 168.339L272.781 200.126ZM230.103 288.977C230.246 287.546 230.459 286.13 230.924 284.842C231.565 284.926 232.19 285.01 232.807 285.092L232.812 285.093L232.913 285.107L233.484 285.182L233.494 285.184C234.269 285.287 235.061 285.392 235.883 285.498L235.389 289.757C233.607 289.662 231.837 289.401 230.103 288.977ZM227.875 292.523C230.177 293.184 232.54 293.592 234.927 293.737L233.827 303.227L233.813 303.346C233.374 307.137 232.922 311.042 232.696 314.958C232.065 314.767 231.464 314.483 230.91 314.113C229.993 313.5 229.24 312.677 228.717 311.71C228.732 311.475 228.749 311.24 228.767 311.004L228.767 311.003L228.767 311.003L228.767 311.002L228.767 311.001C228.777 310.866 228.787 310.73 228.797 310.593L228.797 310.588C229.157 305.709 229.602 299.678 225.56 295.187C225.5 293.664 227.208 292.801 227.875 292.523ZM318.691 300.989C318.492 301.561 318.036 302.038 317.413 302.236C315.56 302.833 313.987 303.996 313.673 305C313.613 305.19 313.457 305.696 314.14 306.593C315.121 307.884 316.632 308.75 318.231 309.667L318.277 309.693L318.278 309.694C318.651 309.907 319.024 310.12 319.39 310.337C321.277 311.46 321.943 313.9 322.477 315.856C322.617 316.373 322.753 316.863 322.88 317.216C323.957 320.17 326.15 323.64 330.423 323.356C333.237 323.17 336.637 321.053 337.753 315.666C338.609 311.538 337.838 307.094 337.093 302.792L337.09 302.776C336.997 302.247 336.907 301.721 336.817 301.195L336.817 301.193C336.802 301.107 336.794 301.022 336.79 300.938L318.691 300.989ZM340.277 299.526C340.522 299.799 340.695 300.142 340.76 300.53C340.834 300.974 340.91 301.418 340.987 301.864L340.988 301.866L341.027 302.093L341.03 302.11C341.839 306.778 342.675 311.606 341.663 316.476C341.582 316.867 341.49 317.25 341.386 317.625C342.112 317.509 342.84 317.419 343.557 317.33L343.56 317.329H343.561C346.562 316.956 349.167 316.632 350.923 314.74C350.99 314.517 351.02 314.28 351.013 314.047C350.05 309.54 347.097 301.277 344.487 293.98L344.447 293.868L344.445 293.862C344.088 292.863 343.735 291.874 343.39 290.905C343.309 291.277 343.121 291.621 342.847 291.893C342.473 292.267 341.963 292.477 341.437 292.477H341.403L340.74 292.466L340.91 296.697C340.925 297.222 340.959 298.494 340.277 299.526ZM336.735 292.4L315.805 292.056C315.559 293.691 315.467 295.347 315.527 297L336.92 296.94C336.92 296.907 336.92 296.87 336.917 296.833L336.735 292.4Z" fill="black"/>
</g>
<path d="M274.713 157.413C274.553 153.94 274.587 151.463 274.807 147.993C270.647 149.693 266.047 148.993 261.76 148.247C257.65 147.523 253.807 146.103 250.703 143.217C244.88 137.793 243.333 129.333 244.167 121.72C244.5 118.697 245.787 113.703 247.937 108.173L249.163 102.23C250.12 93.7201 255.933 86.2001 263.387 81.9867C270.84 77.7734 279.72 76.6034 288.257 77.4167C297.757 78.3234 307.467 81.9334 313.387 89.4167C319.307 96.9001 320.163 108.75 313.56 115.64L304.253 122.357C308.077 118.997 310.327 118.547 312.837 119.813C316.41 121.617 316.947 125.43 316.17 128.633C315.33 132.167 313.09 135.213 310.217 137.383C308.767 138.46 307.187 139.357 305.517 140.05C304.697 140.397 303.86 140.703 303.01 140.97C302.053 141.273 301.087 141.263 300.637 142.197C298.657 146.323 297.78 150.107 298.167 154.667" fill="white"/>
<path d="M331.433 135.207C331.597 141.593 334.98 146.993 338.313 152.207L338.38 152.313C341.53 157.273 344.93 162.62 344.76 168.717C344.563 175.927 339.497 182.13 339.927 189.427C340.333 196.34 346.413 205.29 340.557 211.427C337.933 214.173 334.723 213.873 331.62 212.13C328.25 210.237 324.897 208.83 320.977 208.623C320.02 208.573 319.06 208.587 318.103 208.67L313.037 206.67C311.657 206.037 310.497 205.007 309.7 203.713C308.907 202.42 308.513 200.92 308.573 199.403C308.74 196.43 310.667 193.637 310.24 190.69C309.713 187.01 305.797 184.737 304.573 181.23C303.183 177.227 305.597 173.023 307.517 169.247C308.823 166.73 309.813 164.06 310.457 161.3C310.233 161.22 310.033 161.09 309.87 160.92C309.47 160.51 309.233 159.957 308.827 159.55C308.04 158.753 306.777 158.637 305.883 157.97C305.337 157.557 304.963 156.957 304.49 156.457C303.683 155.643 302.627 153.453 301.487 153.303C300.347 153.153 299.193 153.383 298.2 153.96C297.81 149.347 298.653 146.377 300.647 142.197C301.097 141.263 302.063 141.273 303.13 141.023C303.367 140.867 303.613 140.72 303.867 140.58C300.753 133.407 300.483 125.083 299.753 117.17C298.877 107.783 296.683 97.5634 289.21 91.8167C286.12 89.4401 282.383 88.0601 278.623 87.0401C275.373 86.1567 272.06 85.5167 268.713 85.1267L265.293 85.7234C263.417 85.6667 261.563 86.1734 259.973 87.1701C258.383 88.1701 257.123 89.6201 256.357 91.3367L252.773 95.2501C249.747 98.7034 248.167 103.187 248.353 107.773C245.783 113.707 244.497 118.7 244.163 121.723C243.33 129.337 244.877 137.797 250.697 143.217C253.8 146.103 257.643 147.523 261.753 148.247C266.04 148.993 270.64 149.693 274.8 147.993C274.58 151.46 274.307 151.15 274.163 154.67C273.917 155.607 272.663 156.917 267.163 155.627C261.663 154.337 259.497 158.63 256.997 162.337C254.497 166.043 252.407 167.32 250.337 168.16C246.073 169.897 245.46 175.927 241.67 178.693C241.543 174.277 243.24 170.037 244.337 165.757C245.433 161.477 245.863 156.623 243.467 152.91C241.837 150.37 239.11 148.72 237.397 146.243C235.21 143.083 234.947 138.98 235.17 135.15C235.393 131.32 236.02 127.433 235.33 123.653C235 118.667 233 113.333 234 107.667C235.667 96.6667 241.333 86.0001 250.647 80.0567L255 77.1934C256.487 74.6901 258.613 72.6301 261.157 71.2167C263.7 69.8034 266.577 69.0934 269.487 69.1534L272.853 68.3634C284.233 66.8567 295.797 68.9834 305.893 74.4434C315.99 79.9034 324.103 88.4167 329.073 98.7634C330.847 102.46 332.217 106.447 332.257 110.547C332.317 117.05 329.047 123.52 330.52 129.853L331.433 135.207Z" fill="white"/>
<path fill-rule="evenodd" clip-rule="evenodd" d="M328.163 127.347C328.217 128.417 329.103 129.247 330.16 129.247H330.16C330.194 129.247 330.227 129.247 330.26 129.243C331.363 129.187 332.213 128.247 332.157 127.143C332.027 124.55 332.569 121.876 333.144 119.045L333.15 119.013L333.153 119L333.153 119C333.709 116.264 334.283 113.435 334.257 110.533C334.22 106.697 333.113 102.567 330.877 97.9034C325.693 87.1067 317.383 78.3867 306.847 72.6901C296.31 66.9934 284.463 64.8134 272.59 66.3867C271.79 66.4941 271.161 67.062 270.939 67.7875C270.584 67.411 270.084 67.1718 269.527 67.1601C266.273 67.0934 263.037 67.8901 260.187 69.4701C257.337 71.0501 254.947 73.3667 253.28 76.1667C252.713 77.1167 253.023 78.3434 253.973 78.9101C254.297 79.1034 254.65 79.1934 254.997 79.1934C255.68 79.1934 256.343 78.8467 256.713 78.2134C258.02 76.0201 259.89 74.2101 262.123 72.9701C264.357 71.7301 266.893 71.1034 269.44 71.1601C270.365 71.1767 271.147 70.577 271.399 69.7412C271.825 70.1925 272.455 70.4401 273.117 70.3534C284.15 68.8901 295.153 70.9167 304.943 76.2101C314.733 81.5034 322.453 89.6034 327.27 99.6367C329.25 103.76 330.227 107.337 330.257 110.573C330.28 113.057 329.77 115.563 329.23 118.217L329.225 118.244L329.225 118.244C328.626 121.195 328.007 124.249 328.163 127.347ZM239.677 178.747C239.707 179.833 240.597 180.69 241.673 180.69H241.727C242.833 180.657 243.703 179.737 243.67 178.633C243.583 175.625 244.452 172.643 245.372 169.488L245.373 169.483L245.381 169.458C245.685 168.413 245.999 167.335 246.277 166.253C247.843 160.143 247.473 155.423 245.153 151.827C244.173 150.303 242.923 149.12 241.713 147.977C240.703 147.023 239.75 146.123 239.043 145.103C237.503 142.877 236.907 139.75 237.17 135.263C237.22 134.393 237.293 133.493 237.367 132.623L237.368 132.604C237.614 129.61 237.869 126.517 237.32 123.403C237.193 121.617 236.87 119.797 236.557 118.033C235.977 114.763 235.377 111.38 235.97 108.013C235.97 108 235.973 107.983 235.977 107.967C237.677 96.7534 243.563 86.95 251.723 81.7434C252.653 81.1467 252.927 79.91 252.333 78.98C251.737 78.05 250.5 77.7767 249.57 78.37C240.323 84.2734 233.93 94.83 232.027 107.343C231.318 111.395 232.008 115.288 232.618 118.721L232.62 118.733C232.937 120.503 233.233 122.177 233.34 123.783C233.343 123.86 233.353 123.937 233.367 124.01C233.847 126.647 233.62 129.39 233.38 132.293L233.374 132.363C233.303 133.235 233.229 134.137 233.177 135.03C232.98 138.443 233.03 143.437 235.757 147.377C236.697 148.74 237.85 149.83 238.967 150.883C240.05 151.907 241.073 152.873 241.79 153.99C243.477 156.603 243.677 160.287 242.403 165.26C242.159 166.224 241.871 167.215 241.591 168.177L241.537 168.363C240.57 171.677 239.573 175.107 239.677 178.747ZM312.203 208.483C312.473 208.607 312.757 208.667 313.037 208.667C313.793 208.667 314.517 208.233 314.86 207.503C315.32 206.497 314.88 205.31 313.877 204.85C312.853 204.383 312.003 203.627 311.413 202.67C310.827 201.72 310.537 200.623 310.577 199.507C310.637 198.487 310.983 197.4 311.35 196.253L311.354 196.241C311.906 194.508 312.533 192.542 312.223 190.417C311.853 187.833 310.257 185.897 308.847 184.187L308.796 184.125C307.815 182.928 306.889 181.799 306.467 180.583C305.453 177.663 307.203 174.253 308.897 170.957C308.99 170.779 309.081 170.601 309.171 170.422L309.193 170.38L309.242 170.283L309.307 170.157C312.163 164.51 314.837 156.28 311.337 149.14C310.639 147.716 309.752 146.461 308.895 145.251L308.873 145.22L308.742 145.034L308.742 145.034L308.742 145.034L308.742 145.033L308.742 145.033C308.347 144.473 307.971 143.939 307.62 143.39C303.433 136.86 302.737 128.567 302.063 120.543C301.963 119.353 301.863 118.17 301.753 116.993C300.907 107.937 298.857 96.7134 290.437 90.24C287.577 88.04 284.097 86.46 279.157 85.12C275.817 84.2134 272.387 83.55 268.953 83.15C267.857 83.02 266.86 83.8067 266.733 84.9034C266.603 86.0034 267.39 86.9967 268.487 87.1234C271.72 87.5 274.957 88.1267 278.103 88.98C282.513 90.1767 285.563 91.5467 287.993 93.4134C295.187 98.9434 296.993 109.12 297.763 117.367C297.855 118.337 297.937 119.311 298.02 120.291L298.07 120.877C298.593 127.112 299.13 133.501 301.237 139.368C300.418 139.621 299.423 140.104 298.833 141.327C296.76 145.643 295.783 147.943 296.207 152.963C296.293 154.01 297.17 154.797 298.197 154.797C298.253 154.797 298.31 154.793 298.37 154.783C299.47 154.693 300.287 153.723 300.193 152.623C299.86 148.703 300.453 147.2 302.37 143.2C302.474 143.166 302.623 143.13 302.758 143.098L302.83 143.08L302.832 143.079C303.259 143.919 303.729 144.743 304.247 145.55C304.685 146.234 305.15 146.892 305.598 147.526L305.603 147.533L305.667 147.624C306.45 148.734 307.191 149.784 307.737 150.903C310.513 156.567 308.177 163.52 305.733 168.353C305.669 168.48 305.603 168.608 305.537 168.737L305.536 168.737L305.536 168.738C305.469 168.869 305.4 169.001 305.333 169.133L305.331 169.138C303.352 172.993 301.107 177.365 302.683 181.9C303.35 183.81 304.573 185.297 305.757 186.73L305.76 186.734C306.988 188.226 308.05 189.515 308.26 190.987C308.436 192.204 307.998 193.578 307.536 195.028L307.533 195.037L307.531 195.044C307.105 196.382 306.663 197.77 306.577 199.3C306.575 199.305 306.575 199.309 306.574 199.314C306.573 199.321 306.573 199.328 306.573 199.337C306.503 201.253 306.997 203.13 308 204.763C309.007 206.397 310.46 207.683 312.203 208.483ZM336.073 215.483C334.36 215.483 332.53 214.957 330.643 213.893C326.873 211.777 323.953 210.803 320.873 210.64C320.01 210.593 319.137 210.61 318.277 210.683C317.183 210.787 316.207 209.963 316.113 208.863C316.017 207.763 316.833 206.793 317.933 206.7C318.977 206.61 320.037 206.593 321.083 206.65C325.773 206.897 329.537 208.69 332.6 210.41C336.207 212.437 338.043 211.183 339.11 210.067C342.333 206.693 340.967 201.97 339.52 196.97L339.52 196.97C338.807 194.507 338.07 191.96 337.93 189.563C337.677 185.283 339.087 181.463 340.453 177.77L340.466 177.735L340.466 177.735C341.605 174.648 342.68 171.732 342.763 168.683C342.913 163.21 339.767 158.243 336.723 153.443L336.627 153.29C333.34 148.12 329.617 142.26 329.437 135.27C329.41 134.167 330.28 133.247 331.383 133.22C332.483 133.197 333.407 134.063 333.433 135.167C333.583 141.047 336.847 146.18 340.003 151.143L340.1 151.297C343.31 156.357 346.947 162.093 346.76 168.787C346.661 172.489 345.422 175.851 344.224 179.103L344.207 179.15L344.203 179.159C342.928 182.616 341.724 185.88 341.927 189.323C342.039 191.252 342.672 193.447 343.344 195.774L343.367 195.853C344.987 201.447 346.82 207.787 342.007 212.823C340.317 214.593 338.293 215.483 336.073 215.483ZM260.143 114.533C260.143 116.098 259.099 117.367 257.81 117.367C256.521 117.367 255.477 116.098 255.477 114.533C255.477 112.969 256.521 111.7 257.81 111.7C259.099 111.7 260.143 112.969 260.143 114.533ZM269.143 118.15C270.432 118.15 271.477 116.882 271.477 115.317C271.477 113.752 270.432 112.483 269.143 112.483C267.855 112.483 266.81 113.752 266.81 115.317C266.81 116.882 267.855 118.15 269.143 118.15ZM274.71 157.747C273.647 157.747 272.763 156.91 272.713 155.837C272.607 153.49 272.583 152.31 272.65 150.7C268.643 151.473 264.563 150.763 261.417 150.213C256.333 149.32 252.383 147.507 249.34 144.677C243.747 139.467 241.133 131.02 242.177 121.497C242.567 117.967 244.02 112.713 246.07 107.443C246.47 106.413 247.63 105.903 248.66 106.303C249.69 106.703 250.2 107.863 249.8 108.893C247.527 114.74 246.427 119.463 246.153 121.933C245.25 130.183 247.403 137.407 252.067 141.747C254.56 144.067 257.75 145.503 262.107 146.27C266.56 147.047 270.533 147.57 274.05 146.137C274.687 145.877 275.413 145.963 275.973 146.363C276.533 146.763 276.847 147.427 276.803 148.113C276.59 151.467 276.553 152.207 276.713 155.647C276.763 156.75 275.91 157.687 274.807 157.737C274.773 157.747 274.743 157.747 274.71 157.747ZM248.717 104.993C248.813 105.007 248.91 105.013 249.003 105.013C249.983 105.013 250.84 104.293 250.98 103.3C251.57 99.2134 252.747 98.1101 254.003 97.2567C256.367 95.6534 256.99 94.4234 257.71 93.0001L257.738 92.9443C257.956 92.5181 258.183 92.0738 258.49 91.5501C259.15 90.4301 260.03 89.5067 261.04 88.8734C261.907 88.3267 262.863 87.9734 263.877 87.8167C264.97 87.6501 265.717 86.6301 265.55 85.5367C265.383 84.4434 264.36 83.6967 263.27 83.8634C261.713 84.1001 260.247 84.6467 258.913 85.4834C257.363 86.4534 256.027 87.8501 255.043 89.5167C254.657 90.1734 254.38 90.7167 254.14 91.1934L254.134 91.2061C253.518 92.4203 253.261 92.927 251.757 93.9467C249.757 95.3001 247.8 97.3034 247.02 102.73C246.863 103.823 247.623 104.837 248.717 104.993Z" fill="black"/>
<defs>
<clipPath id="clip0_84_236">
<rect width="200" height="200" fill="white" transform="translate(185 154)"/>
</clipPath>
</defs>
</svg>
