<svg width="80" height="184" viewBox="0 0 80 184" fill="none" xmlns="http://www.w3.org/2000/svg">
<path d="M38.8 147.522C34 148.654 28.8 147.994 24.1333 146.145C25.8667 137.692 25.4667 128.844 24.6667 120.259C24.644 119.155 24.5547 118.053 24.4 116.958V115.637C23.8667 111.279 23.6 107.053 23.7333 102.694C23.7333 100.713 23.7333 98.8644 23.8667 96.8834C24 95.4306 24.1333 93.9779 24.4 92.5251C24.9333 90.0158 25.3333 87.5065 26.4 85.1293C35.6 84.3369 44.8 84.601 54 84.0728C57.7333 97.6758 57.0667 111.807 56.1333 125.806C56 126.467 56 126.995 55.8666 127.655C55.8666 128.712 55.7333 129.9 55.7333 130.957C55.3333 136.9 54.1333 142.975 55.1627 148.857C54.3253 148.744 55.1107 148.407 55.1627 148.857C54.8 148.786 54.2667 148.654 53.8667 148.654C50 149.182 46.1333 148.522 42.2667 148.786C41.8667 148.786 41.3333 148.918 40.9333 148.918C40 148.786 38.6667 148.654 38.8 147.483V147.522Z" fill="white"/>
<path fill-rule="evenodd" clip-rule="evenodd" d="M29.0028 164.703C31.8484 165.499 35.1 164.654 37.1826 162.575L37.4666 162.715C37.3616 163.507 37.3093 164.32 37.2566 165.141C37.1026 167.537 36.9446 169.995 35.4546 172.16C33.8546 174.405 31.188 175.065 28.5213 175.461C27.8388 175.382 27.0838 175.422 26.3144 175.463C24.5288 175.558 22.6661 175.657 21.4546 174.273C20.8605 171.428 23.2079 169.749 25.4384 168.154C26.2114 167.601 26.9703 167.058 27.588 166.481C27.6824 166.387 27.7602 166.294 27.833 166.206C27.9658 166.046 28.0824 165.906 28.2546 165.82C28.5005 165.455 28.7464 165.09 29.0028 164.703ZM29.0028 164.703C29.0244 164.67 29.0462 164.637 29.068 164.604L28.9533 164.688C28.9698 164.693 28.9863 164.698 29.0028 164.703ZM46.6867 168.397C45.2133 168.806 43.5693 168.821 42.2187 168.11L41.7307 168.491C41.7278 168.729 41.7352 168.97 41.7424 169.209C41.7626 169.871 41.7825 170.524 41.5867 171.106C40.7867 173.087 39.8533 175.068 38.92 177.049C38.6533 177.819 38.6533 178.656 38.92 179.426C40.7867 181.143 43.72 181.011 45.9867 180.086C47.9867 179.162 49.5867 177.445 50.6533 175.464C51.816 173.161 51.7621 170.556 51.7097 168.029C51.7021 167.658 51.6944 167.288 51.6907 166.922L50.82 166.458C49.4987 167.22 48.16 167.988 46.6867 168.397Z" fill="black"/>
<path fill-rule="evenodd" clip-rule="evenodd" d="M29.7904 160.235C29.9201 156.143 30.0476 152.119 29.6507 148.019L29.6547 147.674C32.504 148.136 35.4107 148.121 38.2547 147.624V147.641L38.2529 147.703C38.1201 152.264 37.9862 156.866 37.588 161.599C37.5773 161.85 37.564 162.099 37.5493 162.344L37.1827 162.578C35.0867 164.666 31.8107 165.509 28.9533 164.691H28.9467C29.3813 164.043 29.648 163.296 29.7213 162.521C29.7422 161.756 29.7663 160.994 29.7904 160.235ZM41.5943 158.227C41.6988 161.44 41.8007 164.573 41.7706 167.756L42.2186 168.114C43.5693 168.825 45.22 168.809 46.6866 168.401C48.1533 167.993 49.4973 167.224 50.82 166.462L51.6733 165.869C51.6624 165.483 51.6503 165.13 51.6385 164.79C51.6113 164.003 51.5866 163.287 51.5866 162.393C51.54 160.869 51.526 159.345 51.512 157.822C51.4859 154.987 51.4598 152.153 51.224 149.318V148.883C47.8573 148.924 44.492 148.887 41.128 148.774V148.974C41.1642 150.777 41.2759 152.599 41.388 154.429C41.4615 155.628 41.5352 156.831 41.588 158.034L41.5943 158.227Z" fill="white"/>
<path fill-rule="evenodd" clip-rule="evenodd" d="M39.9014 149.519C40.0757 149.526 40.2501 149.533 40.4246 149.539C40.4751 150.685 40.5257 151.832 40.5774 152.977C40.5774 152.977 40.8733 160.39 40.9173 168.927C40.9173 169.034 40.9207 169.142 40.924 169.252L40.924 169.252L40.9267 169.34C40.9573 170.249 40.9853 171.106 39.8693 172.623C39.7973 172.722 39.704 172.842 39.596 172.98C39.0027 173.742 38.0107 175.016 37.5747 176.436C37.296 177.351 37.3853 178.325 37.8253 179.176C38.2653 180.027 39.012 180.667 39.9213 180.978C40.8053 181.283 41.7453 181.435 42.704 181.435C43.888 181.435 45.1013 181.202 46.276 180.745C46.2783 180.744 46.2811 180.743 46.2841 180.742C46.2862 180.741 46.2884 180.74 46.2907 180.739C46.8827 180.492 47.448 180.179 47.9707 179.81C51.696 177.294 52.428 173.182 52.3853 170.175C52.3347 166.766 52.2613 163.318 52.1893 159.983L52.0007 149.661C52.9325 149.647 53.8624 149.627 54.7894 149.601L55.0147 149.638C55.268 149.679 55.5254 149.598 55.708 149.42C55.8907 149.242 55.976 148.987 55.9374 148.736C55.3214 144.761 55.68 140.664 56.0266 136.702L56.0266 136.702L56.0267 136.701C57.556 119.225 59.1374 101.154 54.8214 83.9156C54.7147 83.4903 54.2814 83.2315 53.852 83.3371C53.4227 83.4428 53.1614 83.872 53.268 84.2973C57.5197 101.28 55.951 119.214 54.4337 136.56V136.56L54.4334 136.565L54.4314 136.588L54.4313 136.588C54.1053 140.329 53.769 144.188 54.228 148.031C49.4894 148.151 44.6934 148.119 39.9614 147.936L39.9335 147.934H39.9333L39.9329 147.934H39.9327L39.9324 147.934C39.8337 147.93 39.6347 147.921 39.5747 147.895C39.5652 147.875 39.5567 147.844 39.5495 147.803C39.6012 147.669 39.6167 147.52 39.5867 147.369C39.5721 147.295 39.5477 147.226 39.5152 147.162C39.2412 136.421 39.3091 125.53 39.72 114.785L39.7202 114.782C39.8908 110.32 40.1032 104.767 36.928 100.725C36.6574 100.379 36.1534 100.318 35.8054 100.587C35.4574 100.856 35.3934 101.353 35.6654 101.699C38.4827 105.286 38.2827 110.519 38.1214 114.726C37.7146 125.396 37.6427 136.209 37.9083 146.875C33.5581 147.587 29.1217 147.157 24.9933 145.622C26.9533 136.468 26.1294 126.958 25.332 117.756L25.332 117.755L25.3144 117.552L25.3144 117.551L25.3143 117.551L25.3143 117.55L25.3142 117.55C25.2522 116.831 25.1902 116.114 25.1293 115.398C24.2813 105.371 23.74 94.7835 27.1547 85.2561C27.3027 84.8441 27.084 84.3911 26.668 84.2445C26.252 84.0979 25.7947 84.3145 25.6467 84.7265C22.1267 94.5511 22.6733 105.332 23.5347 115.531C23.6013 116.317 23.6693 117.104 23.7373 117.891C24.544 127.198 25.3773 136.821 23.2853 145.939C23.1973 146.318 23.4013 146.702 23.764 146.849C25.4108 147.511 27.1072 148.006 28.8308 148.331C28.8434 148.656 28.8691 149.31 28.9214 150.627C28.9322 150.899 28.9427 151.16 28.9527 151.411C29.1653 156.72 29.1989 157.561 28.9214 163.27C28.9111 163.483 28.8694 163.698 28.8029 163.912C28.5172 163.967 28.2717 164.175 28.1853 164.471C28.1272 164.669 28.1517 164.873 28.2386 165.045C27.7444 165.778 27.0807 166.409 26.5894 166.758C26.1739 167.052 25.6254 167.333 25.0435 167.631L25.0414 167.632C23.1894 168.581 20.6547 169.879 20.8 172.857C20.904 174.967 22.2227 175.986 23.424 176.235C24.0907 176.373 24.7454 176.431 25.408 176.431C26.6467 176.431 27.912 176.23 29.3307 175.978C31.4294 175.601 35.1574 174.545 36.5427 171.688C37.1761 170.385 37.5894 168.867 37.8054 167.049C38.4787 161.403 38.724 155.601 38.9613 149.988L38.9614 149.987L38.973 149.359C39.3239 149.498 39.6784 149.511 39.9014 149.519ZM37.3891 148.556C36.197 148.716 35.0009 148.795 33.808 148.795C32.6817 148.795 31.5578 148.725 30.4421 148.584C30.457 148.962 30.4814 149.573 30.5214 150.563C30.5316 150.818 30.5415 151.064 30.551 151.3C30.7677 156.69 30.8024 157.552 30.5214 163.347C30.5079 163.624 30.4633 163.897 30.3938 164.164C32.6425 164.399 35.0239 163.605 36.616 162.018C36.6432 161.991 36.6718 161.966 36.7016 161.944C37.0241 157.93 37.1954 153.877 37.3627 149.919L37.3891 148.556ZM36.5062 164.166C34.9579 165.227 33.0905 165.797 31.2133 165.797C30.7168 165.797 30.2197 165.757 29.7278 165.676C29.0605 166.758 28.1236 167.62 27.5214 168.047C27.022 168.401 26.4353 168.702 25.8144 169.021L25.7774 169.04C23.68 170.114 22.3107 170.955 22.4 172.78C22.4187 173.165 22.572 174.439 23.7534 174.685C25.388 175.023 26.9787 174.786 29.0467 174.417C33.3934 173.637 34.7294 171.767 35.1014 171C35.6574 169.856 36.0214 168.503 36.2174 166.862C36.3239 165.968 36.4196 165.069 36.5062 164.166ZM42.176 152.908C42.176 152.908 42.0904 150.986 42.0287 149.592C44.2085 149.655 46.3981 149.687 48.5854 149.687C49.191 149.687 49.7964 149.685 50.4013 149.68L50.5907 160.016L50.6037 160.631C50.639 162.293 50.6749 163.98 50.7076 165.674C50.6086 165.688 50.5106 165.721 50.4187 165.774C49.1627 166.499 47.8627 167.248 46.472 167.635C45.0147 168.04 43.6374 167.961 42.5947 167.412C42.5658 167.397 42.5364 167.383 42.5066 167.372C42.4383 159.475 42.176 152.908 42.176 152.908ZM46.9027 169.16C48.2944 168.774 49.5816 168.083 50.7402 167.421C50.7567 168.347 50.772 169.273 50.7853 170.196C50.8387 174.007 49.5867 176.803 47.0627 178.504L47.048 178.515C46.6227 178.817 46.1613 179.072 45.6773 179.274C43.9413 179.954 42.036 180.031 40.4467 179.481C39.9253 179.305 39.5013 178.94 39.2507 178.455C39 177.969 38.948 177.416 39.1067 176.896C39.4573 175.756 40.3373 174.624 40.864 173.948C40.9827 173.796 41.0853 173.664 41.164 173.556C42.6016 171.601 42.5601 170.321 42.5267 169.292L42.5267 169.29C42.5247 169.229 42.5228 169.169 42.5212 169.109C43.1901 169.352 43.9248 169.473 44.696 169.473C45.4067 169.473 46.1507 169.369 46.9027 169.16Z" fill="black"/>
<g clip-path="url(#clip0_4_498)">
<path d="M45.2493 49.8595C45.3693 51.1917 45.92 54.2017 47.9693 53.7506L48.1893 54.0804C48.0893 56.1473 47.0306 57.6048 45.372 59.1151C43.6866 60.6254 41.5373 61.5329 39.2693 61.6925C37.2693 61.8376 35.1426 61.3641 33.6466 60.0371C32.1506 58.7102 31.364 56.8714 32.3546 55.2952H32.4986C32.9493 55.3084 33.364 55.0749 33.7453 54.8375C34.2306 54.5341 35.232 53.2903 35.532 52.9328C35.932 52.4197 36.0946 50.4741 36.3 49.8595H45.2493V49.8595Z" fill="white"/>
<path d="M16.94 103.906C16.0067 104.25 15.2067 105.041 15.4733 106.096C17.2067 107.811 16.8067 110.317 16.6733 112.428C16.944 113.016 17.376 113.517 17.9187 113.876C18.4627 114.235 19.096 114.437 19.7493 114.458L20.8667 104.384L16.94 103.906Z" fill="white"/>
<path d="M48.3013 53.0396C50.66 53.6649 52.4893 55.4627 53.9627 57.3028C55.5693 59.3143 56.8307 61.5738 57.696 63.9903C58.18 65.3383 58.9453 66.8578 59.2613 68.2534L59.6826 69.521C61.9493 79.1921 62.368 89.164 62.52 99.1095L62.6533 99.4287C63.4667 102.403 66.5333 109.922 67.2 113.087C67.2213 113.358 67.176 113.629 67.0666 113.879C65.7333 115.462 63.4667 115.066 61.7133 115.603L55.5173 116.824C46.6493 118.398 43.4827 119.573 34.6 118.092L34.2 117.993C33.616 113.133 33.1853 108.084 32.936 102.997L32.8747 103.261C32.0333 108.125 31.2453 112.626 31.08 117.558L31.0547 117.767C29.144 117.406 23.368 116.384 21.4547 116.022C20.9373 115.923 20.3693 115.794 20.0667 115.363C19.816 115.009 19.8173 114.544 19.836 114.112C19.912 112.397 20.112 110.695 20.312 108.992L21.2267 101.198H21.1573C19.8027 101.035 18.7147 100.873 17.36 100.711C17.9213 94.5826 18.6413 88.4715 19.52 82.3763C20.2853 77.0672 21.1733 71.7567 22.752 66.627C24.1547 62.0684 27.8467 56.0352 32.072 53.7493L34.7027 54.1648C36.436 55.869 39.352 56.2304 41.4507 54.9997L48.3013 53.0396Z" fill="black"/>
<path d="M52.8813 107.237C51.5973 107.648 49.936 109.314 51.0213 110.722C51.6187 111.499 52.5213 111.917 53.3493 112.404C53.988 112.78 54.156 114.045 54.4027 114.716C55.0267 116.409 56.2387 117.794 58.224 117.666C60.2453 117.534 61.5027 115.831 61.8867 113.994C62.304 112.002 61.636 109.113 61.3013 107.142L52.8813 107.237Z" fill="white"/>
<path fill-rule="evenodd" clip-rule="evenodd" d="M34.2773 74.7285L34.3813 55.1923C34.3813 54.4286 34.5333 51.7509 34.7693 51.3803C33.036 52.5041 31.9787 54.3666 30.9813 56.1578C30.4093 57.1854 29.8187 58.2868 29.8973 59.4554C29.9554 60.3303 30.3759 61.1134 30.7977 61.8988C31.1796 62.6102 31.5627 63.3235 31.6787 64.109C31.8397 65.1991 31.4705 66.2486 31.0982 67.3067C30.8201 68.0974 30.5402 68.8928 30.4787 69.7135C30.4053 70.7424 30.8133 73.0111 31.0867 74.011L33.0787 81.2867L33.0107 87.9202C35.3253 83.1453 38.0293 78.5643 41.0973 74.2246C42.052 72.8713 43.0973 71.3676 42.892 69.7294C42.8469 69.3725 42.7442 69.0149 42.642 68.6591L42.642 68.6591C42.442 67.9629 42.244 67.2737 42.484 66.6112C42.6387 66.1838 42.96 65.8395 43.272 65.5071L47.78 60.7243C48.088 60.3972 48.4053 60.0543 48.54 59.6269C48.692 59.1389 48.584 58.6126 48.4747 58.1126L47.1013 51.8525C46.98 51.2998 46.7467 50.635 46.1813 50.5453C44.8253 51.4291 43.6213 52.7468 42.5667 54.1265C41.8882 55.0151 41.2633 55.9331 40.6859 56.8764L41.4507 54.9997C39.352 56.2304 36.436 55.869 34.7027 54.1648V71.5576L35.5983 69.36C35.1095 71.1826 34.6863 73.0304 34.3 74.8842L34.2773 74.7285ZM17.1854 103.859C17.2654 102.875 17.3534 101.868 17.78 100.976L21.0454 101.328L20.684 104.387C19.4987 104.379 18.32 104.201 17.1854 103.859ZM51.4307 106.854C51.3574 105.826 51.4267 104.795 51.6347 103.785L61.4667 103.928L61.5654 106.359C61.5734 106.649 61.5534 107 61.2987 107.144C61.1734 107.2 61.036 107.224 60.8987 107.214L51.832 107.239C51.7347 107.251 51.636 107.228 51.552 107.178C51.5107 107.135 51.4787 107.083 51.4574 107.028C51.4374 106.972 51.428 106.913 51.4307 106.854Z" fill="white"/>
<path fill-rule="evenodd" clip-rule="evenodd" d="M34.472 118.871C37.4013 119.361 39.72 119.565 41.82 119.565C45.2107 119.565 48.0333 119.031 51.94 118.29L52.2537 118.23C53.267 118.039 54.3184 117.841 55.4861 117.633C56.2035 118.177 57.048 118.465 57.9787 118.465C58.0773 118.465 58.176 118.462 58.272 118.454C59.6841 118.362 60.9119 117.603 61.7354 116.394C61.8067 116.392 61.878 116.38 61.9493 116.357C62.4467 116.204 63.016 116.134 63.6187 116.06C65.0053 115.89 66.576 115.696 67.6813 114.384C67.7307 114.326 67.7707 114.261 67.8013 114.191C67.96 113.826 68.028 113.422 67.9973 113.025C67.9947 112.992 67.9893 112.958 67.9827 112.925C67.5894 111.055 66.4338 107.854 65.3136 104.752L65.3013 104.718L65.2764 104.649L65.2764 104.649C64.4936 102.481 63.7565 100.439 63.4227 99.2217C63.4012 99.1434 63.3685 99.071 63.3269 99.0059C63.2263 89.3717 62.9878 80.169 60.7147 70.4733C60.6147 70.0473 60.1853 69.7822 59.7547 69.8811C59.324 69.98 59.056 70.4047 59.156 70.8308C61.56 81.0863 61.652 90.8564 61.748 101.2L61.7483 101.232C61.7535 101.839 61.7588 102.448 61.7653 103.06L51.6707 102.896C50.1707 91.3022 49.6533 79.5074 50.132 67.8313C50.1507 67.3947 49.8067 67.0254 49.3653 67.0082C48.9227 66.9924 48.5507 67.3301 48.5333 67.7667C48.0413 79.7607 48.5933 91.876 50.1733 103.779C50.2144 104.086 50.4302 104.334 50.7143 104.427C50.6032 105.237 50.5755 106.055 50.6306 106.872C50.6293 107.018 50.656 107.162 50.708 107.303C50.7666 107.46 50.856 107.601 50.972 107.723C50.9765 107.727 50.9811 107.732 50.9857 107.736C50.9927 107.743 50.9999 107.75 51.0071 107.757C50.5224 108.118 50.1207 108.582 49.944 109.139C49.7906 109.621 49.744 110.37 50.384 111.201C50.9773 111.973 51.796 112.436 52.5187 112.843L52.6208 112.901C52.7279 112.962 52.8347 113.023 52.94 113.085C53.1373 113.201 53.353 113.979 53.4474 114.319L53.4493 114.326C53.5147 114.563 53.5773 114.786 53.6507 114.988C53.8211 115.451 54.0238 115.871 54.2553 116.247C53.3162 116.419 52.4398 116.584 51.64 116.736L51.6376 116.736C45.5498 117.889 42.1724 118.528 34.9347 117.343C34.3993 112.781 34.0106 108.127 33.7726 103.503L33.7947 103.377C33.8214 103.222 33.8011 103.071 33.7442 102.937C33.5052 98.0436 33.4351 93.1896 33.5387 88.5204C33.6187 88.4518 33.6867 88.366 33.736 88.2645C36.024 83.5423 38.7227 78.9719 41.7573 74.6798C42.7253 73.308 43.9307 71.5998 43.6907 69.6371C43.6387 69.215 43.5253 68.818 43.4147 68.4341C43.24 67.8261 43.0893 67.3011 43.2413 66.8803C43.3401 66.6054 43.6002 66.3279 43.852 66.0593L43.852 66.0593L43.8613 66.0493L48.3693 61.2665L48.3716 61.2641C48.7046 60.9097 49.1191 60.4684 49.308 59.863C49.5258 59.1654 49.3732 58.4665 49.2613 57.9539L49.26 57.9478L48.3681 53.8831C50.5627 54.5752 52.245 56.4331 53.3346 57.7935C54.8906 59.7404 56.104 61.9141 56.9413 64.2554C57.116 64.7395 57.3253 65.2473 57.528 65.738L57.5337 65.752L57.5337 65.752C57.9053 66.6525 58.289 67.5824 58.48 68.4262C58.564 68.7942 58.8933 69.0448 59.26 69.0448C59.3186 69.0448 59.3773 69.0382 59.436 69.0251C59.8666 68.9288 60.1373 68.5054 60.0413 68.0793C59.82 67.1019 59.408 66.1034 59.0093 65.1379C58.804 64.6419 58.6106 64.1736 58.4493 63.7252C57.5533 61.2203 56.2546 58.8949 54.5893 56.8108C53.3133 55.2174 51.2946 53.0133 48.508 52.2746C48.3405 52.2301 48.1711 52.2417 48.0202 52.2977L47.8867 51.689C47.6373 50.5401 47.1067 49.8938 46.3107 49.7672C46.1133 49.7355 45.9107 49.7777 45.744 49.8872C44.4893 50.7037 43.2427 51.9357 41.9307 53.6517C41.7899 53.8361 41.6514 54.0218 41.5151 54.2087C41.3598 54.1987 41.2 54.2334 41.056 54.3178C39.3532 55.3172 36.9458 55.0674 35.4597 53.7694C35.6012 53.2659 35.761 52.8061 35.8467 52.6598C36.048 52.3445 35.9987 51.9343 35.7306 51.6732C35.4627 51.412 35.0466 51.3711 34.732 51.5755C33.9628 52.0744 33.2536 52.5505 32.6114 53.0704C32.522 53.084 32.4334 53.1129 32.3493 53.1584C27.6986 55.6751 23.356 61.9893 22 66.3962C20.3946 71.613 19.4853 77.1054 18.7413 82.2642C17.8653 88.3423 17.136 94.5233 16.576 100.64C16.5532 100.882 16.6436 101.109 16.8046 101.269C16.5865 101.931 16.495 102.61 16.4345 103.254C15.0764 103.848 14.3824 105.042 14.6973 106.288C14.7333 106.428 14.8053 106.554 14.908 106.656C16.204 107.939 16.0613 109.856 15.9227 111.709L15.9199 111.745L15.9199 111.745C15.9035 111.96 15.8873 112.172 15.8747 112.379C15.8667 112.508 15.8907 112.638 15.9453 112.756C16.2773 113.479 16.8067 114.094 17.4747 114.534C17.9761 114.867 18.5402 115.089 19.1305 115.189C19.1882 115.408 19.2806 115.623 19.4253 115.827C19.9219 116.526 20.7535 116.694 21.3149 116.808L21.3173 116.808C22.1706 116.969 23.8081 117.264 25.497 117.569L25.513 117.572L25.5162 117.572L25.5217 117.573L25.5238 117.574L26.2026 117.696L27.2823 117.891C28.7657 118.158 30.1598 118.41 30.9173 118.553C30.9667 118.563 31.016 118.568 31.0667 118.568C31.2347 118.568 31.4013 118.515 31.54 118.414C31.72 118.284 31.836 118.086 31.8627 117.869L31.888 117.659C31.8907 117.637 31.892 117.614 31.8933 117.592C31.9775 115.081 32.2549 112.676 32.6203 110.267C32.8365 112.89 33.1002 115.503 33.4107 118.085C33.4493 118.411 33.688 118.68 34.0107 118.759L34.4107 118.858C34.4278 118.863 34.4459 118.866 34.4633 118.87L34.472 118.871ZM29.4775 57.3913C26.7367 60.1697 24.4217 63.9578 23.5293 66.8565C22.0426 71.6855 21.1733 76.5976 20.324 82.4871C19.488 88.2855 18.7866 94.1803 18.24 100.02C18.5699 100.062 18.8876 100.104 19.1994 100.145L19.3786 100.169C19.7539 100.218 20.1376 100.269 20.5377 100.32L21.108 95.4558L21.1092 95.4453L21.1092 95.4452L21.1092 95.4452C22.2128 86.0385 23.3542 76.3105 25.592 66.9172C25.6933 66.4925 26.124 66.2287 26.5547 66.3289C26.984 66.4292 27.2506 66.8552 27.1493 67.2813C24.9322 76.5874 23.7962 86.2708 22.6976 95.635L22.6973 95.6379L21.12 109.092C20.9253 110.751 20.724 112.469 20.648 114.156C20.6386 114.366 20.6213 114.759 20.7346 114.917C20.8659 115.1 21.3186 115.193 21.6226 115.255L21.628 115.256C22.5692 115.434 24.5137 115.784 26.4083 116.125L26.4893 116.14C27.8747 116.389 29.296 116.645 30.3226 116.833C30.5173 112.736 31.1893 108.935 31.8987 104.923C31.9358 104.711 31.9733 104.498 32.0109 104.286L32.0111 104.284C32.0622 103.995 32.1134 103.705 32.1643 103.414C31.7778 95.7944 31.7976 88.2572 32.2413 81.3435C32.243 81.3226 32.2452 81.3017 32.2483 81.2809L30.3146 74.2181C30.0413 73.2196 29.596 70.8427 29.6813 69.6582C29.7506 68.7309 30.052 67.8748 30.344 67.0465L30.3448 67.0441C30.6925 66.0557 31.0212 65.1213 30.888 64.2238C30.792 63.5735 30.452 62.9403 30.092 62.2703L30.0888 62.2644C29.6365 61.4207 29.1692 60.5491 29.1 59.5069C29.0488 58.7527 29.2205 58.0433 29.4775 57.3913ZM33.8786 81.2691L33.9427 80.9399L33.9427 80.9395C35.572 72.1509 37.4187 62.1897 43.2067 54.6041C44.2413 53.2494 45.216 52.2364 46.1693 51.5241C46.216 51.631 46.2707 51.7879 46.3213 52.0214L47.6947 58.2815L47.6963 58.2892C47.7786 58.6672 47.8713 59.0935 47.7773 59.3948C47.6969 59.653 47.4471 59.919 47.2043 60.1774L47.196 60.1862L42.6867 64.9703L42.6794 64.9781C42.35 65.3302 41.9411 65.7673 41.732 66.3461C41.4067 67.2444 41.6547 68.107 41.8733 68.8668C41.972 69.2071 42.064 69.5276 42.1 69.827C42.2667 71.1896 41.2987 72.5627 40.444 73.7736C37.944 77.3112 35.6667 81.0349 33.6547 84.8759C33.7031 83.7566 33.7617 82.6501 33.8306 81.5587C33.8643 81.4673 33.8812 81.3693 33.8786 81.2691ZM32.9237 77.6952L31.8587 73.8052C31.5813 72.7896 31.2133 70.6474 31.276 69.7729C31.3293 69.0561 31.5835 68.3339 31.8525 67.5697L31.8533 67.5675L31.854 67.5656C32.2498 66.4398 32.6585 65.277 32.4693 63.9956C32.3335 63.0762 31.9118 62.2909 31.5044 61.5321L31.5027 61.529L31.496 61.5166C31.1078 60.7918 30.7411 60.107 30.6947 59.404C30.6347 58.5018 31.0853 57.6114 31.6813 56.5404C32.2066 55.5973 32.8786 54.889 33.7013 54.2334C33.628 54.5975 33.5813 54.9338 33.5813 55.1884L33.4773 74.7246C33.477 74.7686 33.4804 74.8119 33.4872 74.854C33.2898 75.8072 33.1033 76.7555 32.9237 77.6952ZM35.1126 68.1119C36.2739 64.0332 37.8148 60.0243 40.0621 56.3759C39.6115 56.4719 39.1504 56.5193 38.6893 56.5193C37.4577 56.5193 36.2225 56.1827 35.1795 55.5335L35.1126 68.1119ZM18.0413 103.271C18.0984 102.705 18.1835 102.145 18.3697 101.635C18.6267 101.668 18.8777 101.702 19.1254 101.734L19.1653 101.74L19.3941 101.77C19.7054 101.811 20.0233 101.853 20.3531 101.895L20.1555 103.58C19.4427 103.543 18.7347 103.439 18.0413 103.271ZM17.1498 104.674C18.0708 104.936 19.016 105.098 19.9709 105.155L19.5306 108.91L19.5251 108.957L19.5251 108.957C19.3497 110.457 19.1689 112.002 19.0782 113.552C18.8262 113.476 18.5856 113.364 18.364 113.218C17.9973 112.975 17.696 112.649 17.4867 112.267C17.4926 112.174 17.4996 112.081 17.5067 111.987L17.5067 111.987C17.5107 111.933 17.5148 111.879 17.5187 111.825L17.5188 111.823C17.6628 109.892 17.8408 107.506 16.224 105.728C16.1999 105.126 16.8833 104.785 17.1498 104.674ZM53.4762 108.024C53.3967 108.251 53.2143 108.439 52.9653 108.518C52.224 108.754 51.5947 109.215 51.4693 109.612C51.4453 109.687 51.3827 109.887 51.656 110.242C52.0483 110.753 52.6526 111.096 53.2926 111.459L53.3106 111.469C53.46 111.553 53.6093 111.638 53.756 111.723C54.5107 112.168 54.7773 113.133 54.9907 113.908C55.0466 114.112 55.1013 114.306 55.152 114.446C55.5827 115.615 56.46 116.988 58.1693 116.876C59.2947 116.802 60.6547 115.964 61.1013 113.833C61.4436 112.199 61.1354 110.44 60.837 108.738L60.836 108.732C60.7987 108.522 60.7627 108.314 60.7267 108.105C60.7209 108.071 60.7174 108.038 60.716 108.004L53.4762 108.024ZM62.1109 107.446C62.2088 107.554 62.2778 107.689 62.304 107.843C62.3336 108.018 62.3641 108.194 62.3948 108.37L62.4107 108.461L62.4118 108.468C62.7355 110.315 63.0702 112.226 62.6653 114.153C62.633 114.308 62.5959 114.459 62.5543 114.608C62.8448 114.562 63.1358 114.526 63.4227 114.491L63.4242 114.491C64.6249 114.343 65.667 114.215 66.3693 113.466C66.396 113.378 66.408 113.284 66.4053 113.192C66.02 111.408 64.8387 108.138 63.7947 105.251L63.7786 105.207C63.6357 104.81 63.4941 104.418 63.3561 104.034C63.3235 104.181 63.2485 104.318 63.1387 104.425C62.9893 104.573 62.7853 104.656 62.5747 104.656H62.5613L62.296 104.652L62.364 106.326C62.3699 106.534 62.3837 107.037 62.1109 107.446ZM60.6942 104.626L52.322 104.49C52.2236 105.137 52.1867 105.792 52.2106 106.446L60.768 106.422C60.768 106.409 60.768 106.395 60.7666 106.38L60.6942 104.626Z" fill="black"/>
</g>
<path fill-rule="evenodd" clip-rule="evenodd" d="M41.26 26.2198C42.5747 24.939 43.4147 23.2691 44.2293 21.6322C46.2133 17.646 41.0667 15.6662 38.0093 15.5356C31.5493 15.2573 25.092 19.0798 22.292 24.8453C22.1617 25.1135 22.0332 25.3904 21.9032 25.6703C21.0314 27.5479 20.0948 29.5651 18.1373 30.045C17.8576 30.1138 17.5665 30.1455 17.2764 30.1771C16.8046 30.2284 16.3355 30.2795 15.9227 30.4895C15.256 30.8285 14.884 31.8995 15.5227 32.2952C15.736 32.4047 15.9733 32.4627 16.2133 32.4641L19.3213 32.7199C19.0147 33.8055 19.0413 35.4253 20.1733 35.548C20.652 35.5994 21.0933 35.3079 21.4667 35.0072C21.8003 34.7373 22.2158 34.4812 22.6428 34.218C23.4221 33.7376 24.2394 33.2337 24.6667 32.5801C25.0548 31.986 25.2311 31.3035 25.4058 30.6273C25.6181 29.8053 25.8281 28.9925 26.4133 28.3592C28.1333 26.5126 31.0227 25.8333 33.3973 26.7342C33.7806 26.8766 34.1499 27.0562 34.5189 27.2357C35.0794 27.5083 35.6391 27.7805 36.2453 27.9213C38.0413 28.3381 39.9453 27.5005 41.26 26.2198ZM54.956 25.5959C53.412 22.5713 48.4293 20.474 45 20.511C45 20.511 42.4853 25.1487 41.7333 26.0509C40.708 27.2869 37.4667 28.5571 37.4667 28.5571C38.0981 28.8454 38.8356 28.9761 39.6196 29.1151C40.9879 29.3577 42.4978 29.6255 43.832 30.7994C44.8973 31.9984 45.376 33.6486 45.28 35.2419C45.2662 35.4711 45.2412 35.7012 45.2163 35.9314C45.1495 36.5463 45.0828 37.1613 45.2293 37.7573C45.4307 38.5765 46.236 39.3428 47.0573 39.1199L53.4893 42.8791C53.652 43.6864 54.7373 43.8407 55.404 43.4068C56.0707 42.9728 56.384 42.1708 56.5547 41.3992C56.5678 41.34 56.5805 41.2803 56.5932 41.2202C56.6945 40.7433 56.7994 40.2489 57.1547 39.9126C57.5448 39.5339 58.0975 39.4753 58.6581 39.4157C59.1168 39.367 59.5807 39.3178 59.9653 39.0922C60.9453 38.5184 60.9547 37.0543 60.3933 36.0743C60.0481 35.4716 59.5547 34.9771 59.06 34.4814C58.7502 34.171 58.44 33.8602 58.1653 33.5219C57.0989 32.2074 56.6282 30.5776 56.1547 28.9381C55.8243 27.7941 55.4925 26.6454 54.956 25.5959Z" fill="white"/>
<path d="M36.2453 27.9187C35.24 27.6852 34.3626 27.0903 33.3973 26.7315C31.0226 25.8333 28.1333 26.5126 26.4133 28.3592L25.3333 33.1077C24.5333 34.2949 24.4 35.7458 24 37.1967C24 37.6136 22.3786 43.2432 26.1333 46.9576C27.4666 48.2766 29.2 48.8042 31 49.1999C32.6146 49.4466 34.3786 49.6946 35.9333 49.068C35.844 50.4412 35.8306 51.4212 35.8946 52.7956L45.2946 51.838C45.1413 50.0336 45.4773 48.4098 46.2706 46.7769C46.4493 46.4075 46.8373 46.4115 47.22 46.2915C47.5586 46.186 47.8947 46.0646 48.2227 45.9274C48.8907 45.6531 49.5213 45.2982 50.1026 44.8722C51.252 44.0135 52.1467 42.8079 52.484 41.4097C52.7893 40.1421 52.5746 38.6332 51.144 37.9196C50.1413 37.4183 49.2413 37.5964 47.712 38.926L47.0533 39.1265C46.232 39.3494 45.4266 38.583 45.2253 37.7639C45.024 36.9448 45.2253 36.0901 45.276 35.2485C45.372 33.6551 44.8933 32.005 43.828 30.806C42.7626 29.607 41.0906 28.9145 39.496 29.1585" fill="white"/>
<path fill-rule="evenodd" clip-rule="evenodd" d="M20.288 36.346C20.2226 36.346 20.1546 36.342 20.0866 36.3354C19.5426 36.276 19.0946 36.0083 18.788 35.5611C18.3893 34.9781 18.304 34.1801 18.376 33.4375L16.1746 33.2568C15.82 33.2502 15.4666 33.1605 15.152 32.9982C15.1333 32.989 15.1146 32.9785 15.0973 32.9666C14.6253 32.6738 14.368 32.1725 14.3933 31.5895C14.424 30.8601 14.9026 30.1188 15.556 29.7864C16.094 29.5125 16.6659 29.4488 17.1711 29.3926L17.188 29.3907C17.46 29.3617 17.716 29.3327 17.944 29.2773C19.527 28.8897 20.3642 27.0873 21.1744 25.3433L21.176 25.3399L21.2169 25.2519L21.217 25.2519L21.217 25.2518L21.217 25.2518C21.3351 24.9979 21.4523 24.7459 21.5706 24.5024C24.5026 18.4651 31.2786 14.4526 38.044 14.7441C40.0786 14.8312 43.5933 15.7743 44.9373 18.018C45.432 18.8424 45.8346 20.1997 44.948 21.9817C44.1533 23.5803 43.2506 25.3914 41.8226 26.783C40.164 28.3988 37.9573 29.1308 36.064 28.6916C35.3803 28.5332 34.7779 28.2419 34.1946 27.9599L34.1666 27.9464L34.1538 27.9401C33.7972 27.767 33.4599 27.6032 33.1173 27.4755C31.064 26.6959 28.4946 27.2947 27.0026 28.8961C26.5765 29.3571 26.4297 30.0735 26.2739 30.8335L26.2733 30.8364L26.2713 30.8464C26.1426 31.4731 26.0106 32.1165 25.7152 32.7226C25.951 32.9368 26.0429 33.2801 25.92 33.5931C25.0106 35.9067 24.5706 37.7758 24.4613 38.7532C24.1 42.0178 24.9613 44.8761 26.8266 46.5935C27.824 47.5116 29.1 48.0801 30.8426 48.3834C32.624 48.6908 34.2133 48.8979 35.62 48.3294C35.8746 48.2265 36.1653 48.2608 36.3893 48.4191C36.6133 48.5773 36.7386 48.8398 36.7213 49.1116C36.636 50.4385 36.6213 50.7313 36.6853 52.0926C36.7053 52.5292 36.364 52.8998 35.9226 52.9196C35.9093 52.9249 35.8973 52.9249 35.884 52.9249C35.4586 52.9249 35.1053 52.5938 35.0853 52.1691C35.0426 51.2405 35.0333 50.7735 35.06 50.1364C33.4573 50.4425 31.8253 50.1615 30.5666 49.9439C28.5333 49.5891 26.9533 48.8728 25.736 47.753C23.4986 45.6913 22.4546 42.3489 22.8706 38.5804C22.9893 37.5179 23.3541 36.0608 23.8827 34.5064C23.6546 34.6384 23.4207 34.7636 23.1887 34.8878L23.1887 34.8878L23.1826 34.8911L23.1767 34.8942C22.7149 35.141 22.2773 35.3749 21.9746 35.6205C21.5453 35.9648 20.9773 36.346 20.288 36.346ZM15.9933 31.6357C16.0653 31.6594 16.1413 31.6726 16.2173 31.6726C16.2374 31.6726 16.2564 31.6738 16.2764 31.675H16.2764H16.2764L16.28 31.6753L19.388 31.9312C19.6253 31.9509 19.8426 32.0736 19.9786 32.2675C20.1146 32.4614 20.156 32.7054 20.092 32.9323C19.9 33.6103 19.9106 34.3753 20.1146 34.6734C20.156 34.7341 20.188 34.7526 20.2613 34.7605C20.4755 34.7837 20.8278 34.5008 20.9549 34.3987L20.9626 34.3925C21.384 34.0522 21.9106 33.7699 22.4213 33.4968L22.4282 33.4932C23.1207 33.1223 23.8356 32.7395 24.1293 32.2886C24.44 31.8124 24.5693 31.1846 24.7053 30.5198C24.888 29.6255 25.096 28.6111 25.824 27.8237C27.7746 25.7291 31.0066 24.9772 33.6853 25.9942C34.099 26.1481 34.4914 26.3388 34.8705 26.5231L34.8733 26.5244L34.8781 26.5268C35.411 26.7857 35.9135 27.03 36.4293 27.1497C38.0586 27.5269 39.704 26.6247 40.7 25.6552C41.9341 24.4527 42.7349 22.8451 43.5099 21.2895L43.5133 21.2826C43.9773 20.35 43.9933 19.5454 43.5626 18.8252C42.692 17.373 40.04 16.414 37.9773 16.3257C31.828 16.0605 25.6786 19.705 23.016 25.1869C22.8905 25.4455 22.7663 25.713 22.6409 25.9831L22.6407 25.9835L22.6406 25.9837L22.6333 25.9995C21.7106 27.9872 20.664 30.2401 18.3333 30.8113C18.0108 30.8911 17.6959 30.9256 17.3911 30.9591L17.391 30.9591L17.391 30.9591L17.391 30.9591L17.368 30.9617L17.3648 30.962C16.958 31.0067 16.5726 31.0491 16.292 31.1912C16.1226 31.2782 16.0066 31.5104 15.9933 31.6357ZM45.708 39.658C46.044 39.8546 46.408 39.9548 46.7693 39.9548C46.9373 39.9548 47.104 39.9324 47.2653 39.8902C47.3963 39.855 47.5108 39.7897 47.6033 39.7038C47.822 39.7306 48.0508 39.6683 48.2293 39.513C49.6947 38.2388 50.2293 38.3456 50.7747 38.6186C52.024 39.2425 51.832 40.6434 51.6907 41.2198C51.416 42.3634 50.6747 43.4344 49.6107 44.2298C49.0827 44.6176 48.508 44.9408 47.896 45.1914C47.5933 45.318 47.28 45.4315 46.9627 45.5304C46.9143 45.546 46.8601 45.5591 46.8028 45.573L46.8027 45.5731L46.756 45.5845C46.412 45.6662 45.8373 45.8034 45.5333 46.4273C44.704 48.1355 44.3133 49.0456 44.4827 51.0321C44.5173 51.4449 44.868 51.7575 45.2787 51.7575C45.3013 51.7575 45.324 51.7562 45.348 51.7509C45.788 51.7153 46.1147 51.3315 46.0773 50.8962C45.944 49.345 46.1813 48.7501 46.948 47.1673C46.9859 47.1551 47.0395 47.1422 47.0889 47.1303L47.132 47.1198C47.2253 47.0974 47.332 47.071 47.4427 47.0367C47.8067 46.9246 48.168 46.7927 48.5133 46.6489C49.2413 46.3508 49.932 45.963 50.5693 45.4948C51.4847 44.8112 52.2137 43.9616 52.7033 43.0243L52.7053 43.0348C52.8173 43.5967 53.1987 44.0491 53.748 44.276C54.008 44.3828 54.2933 44.4356 54.58 44.4356C55.0227 44.4356 55.472 44.3103 55.8413 44.0663C56.58 43.5848 57.068 42.767 57.3333 41.5667L57.3733 41.3807L57.3747 41.3743C57.4542 41.0008 57.529 40.649 57.712 40.4758C57.9025 40.29 58.2901 40.249 58.739 40.2016L58.74 40.2015C59.2533 40.1474 59.836 40.0854 60.3693 39.7728C61.0466 39.3771 61.4653 38.6806 61.5507 37.8114C61.62 37.0965 61.452 36.3209 61.0867 35.6838C60.6896 34.9905 60.1502 34.45 59.6279 33.9268L59.6279 33.9267L59.6278 33.9267L59.6267 33.9255C59.3227 33.6208 59.036 33.3333 58.7866 33.0273C57.8213 31.8375 57.384 30.3246 56.9213 28.7219L56.9183 28.7114L56.9183 28.7113L56.9182 28.7113C56.5832 27.5512 56.2369 26.3522 55.668 25.2397C53.9747 21.9223 50.5667 19.7934 46.9653 19.7934H46.8667C46.4253 19.7974 46.0707 20.1561 46.076 20.5927C46.0813 21.0267 46.4387 21.3749 46.876 21.3749H46.8853H46.9667C49.9693 21.3749 52.8187 23.1635 54.2413 25.952C54.744 26.9347 55.056 28.0123 55.3853 29.1546C55.8707 30.8377 56.3733 32.5775 57.5413 34.0165C57.8407 34.3851 58.1706 34.7155 58.4886 35.0341L58.4907 35.0362L58.4968 35.0423C58.9639 35.5109 59.4053 35.9538 59.6973 36.4634C60.0667 37.1097 60.0867 38.1003 59.5573 38.4102C59.3234 38.5483 58.9611 38.5867 58.5771 38.6275L58.5733 38.6279L58.5719 38.628C57.9535 38.694 57.1836 38.776 56.6026 39.3402C56.068 39.8466 55.9253 40.5179 55.8107 41.0574L55.8106 41.0575C55.7986 41.1156 55.7866 41.1736 55.7733 41.2303C55.6013 42.0072 55.336 42.5032 54.964 42.7459C54.7973 42.8541 54.5346 42.8844 54.3653 42.8145C54.2867 42.7815 54.28 42.7512 54.2747 42.7248C54.188 42.2961 53.7667 42.0178 53.3333 42.1035C53.2328 42.1234 53.1404 42.1612 53.0589 42.2127C53.1324 42.007 53.1947 41.7985 53.2453 41.5878C53.7174 39.6594 53.0467 37.9802 51.4947 37.2046C50.4947 36.7047 49.2773 36.4937 47.1733 38.3232C47.1667 38.3289 47.1602 38.3348 47.1539 38.3407C47.0539 38.3285 46.9499 38.335 46.8467 38.3628L46.846 38.3629C46.8093 38.3724 46.7002 38.4003 46.5227 38.2968C46.284 38.157 46.076 37.8681 46.0053 37.5779C45.892 37.1136 45.9493 36.5834 46.0107 36.0202L46.0127 36.0015C46.0374 35.7724 46.063 35.5348 46.0773 35.2947C46.1907 33.4137 45.5907 31.5869 44.432 30.2824C43.004 28.6745 41.3987 28.6679 39.8773 28.9C39.44 28.966 39.1413 29.3709 39.208 29.8022C39.2747 30.2349 39.684 30.5303 40.12 30.4644C41.6427 30.2322 42.4573 30.4578 43.2293 31.327C44.1133 32.3203 44.568 33.7316 44.48 35.1997C44.4693 35.3882 44.449 35.5788 44.4277 35.7789L44.42 35.8513L44.4187 35.8637C44.3471 36.5326 44.2731 37.2236 44.4507 37.9486C44.6253 38.6595 45.0947 39.2993 45.708 39.658ZM29.124 36.9461C29.6395 36.9461 30.0573 36.4442 30.0573 35.8249C30.0573 35.2057 29.6395 34.7038 29.124 34.7038C28.6085 34.7038 28.1907 35.2057 28.1907 35.8249C28.1907 36.4442 28.6085 36.9461 29.124 36.9461ZM33.6574 37.2561C34.1728 37.2561 34.5907 36.7541 34.5907 36.1349C34.5907 35.5157 34.1728 35.0137 33.6574 35.0137C33.1419 35.0137 32.724 35.5157 32.724 36.1349C32.724 36.7541 33.1419 37.2561 33.6574 37.2561Z" fill="black"/>
<defs>
<clipPath id="clip0_4_498">
<rect width="80" height="79.142" fill="white" transform="translate(0 49.8595)"/>
</clipPath>
</defs>
</svg>
