<svg width="66" height="63" viewBox="0 0 66 63" fill="none" xmlns="http://www.w3.org/2000/svg">
<path d="M45.7286 36V16.65H14.1429V36" stroke="url(#paint0_linear_4_109)" stroke-width="5"/>
<path fill-rule="evenodd" clip-rule="evenodd" d="M39.6 36H13.2V40.95H39.6V36ZM31.5857 38.7C31.5857 39.4456 30.9525 40.05 30.1714 40.05C29.3903 40.05 28.7571 39.4456 28.7571 38.7C28.7571 37.9544 29.3903 37.35 30.1714 37.35C30.9525 37.35 31.5857 37.9544 31.5857 38.7Z" fill="#3873FF"/>
<path d="M26.4 40.5H33.9429C33.9429 41.8223 34.8857 42.975 36.2296 43.2957L38.6571 43.875V45H21.6857V43.875L24.1132 43.2957C25.4572 42.975 26.4 41.8223 26.4 40.5Z" fill="#3873FF"/>
<path fill-rule="evenodd" clip-rule="evenodd" d="M41.4857 31.05H52.8V47.25H41.4857V31.05ZM42.9 32.4H51.3857V43.875H42.9V32.4ZM48.1715 45.5319C48.1715 46.0741 47.7109 46.5138 47.1428 46.5138C46.5747 46.5138 46.1142 46.0741 46.1142 45.5319C46.1142 44.9895 46.5747 44.55 47.1428 44.55C47.7109 44.55 48.1715 44.9895 48.1715 45.5319Z" fill="#3873FF"/>
<path d="M58.2214 25.425C58.2214 25.0522 57.9046 24.75 57.5143 24.75C57.1239 24.75 56.8071 25.0522 56.8071 25.425H58.2214ZM57.5143 51.75V52.425C57.9046 52.425 58.2214 52.1226 58.2214 51.75H57.5143ZM41.4857 51.075C41.0952 51.075 40.7786 51.3774 40.7786 51.75C40.7786 52.1226 41.0952 52.425 41.4857 52.425V51.075ZM56.8071 25.425V51.75H58.2214V25.425H56.8071ZM57.5143 51.075H41.4857V52.425H57.5143V51.075Z" fill="white"/>
<path fill-rule="evenodd" clip-rule="evenodd" d="M39.1286 54C40.4304 54 41.4857 52.9924 41.4857 51.75C41.4857 50.5076 40.4304 49.5 39.1286 49.5C37.8268 49.5 36.7714 50.5076 36.7714 51.75C36.7714 52.9924 37.8268 54 39.1286 54Z" stroke="white" stroke-width="3"/>
<path fill-rule="evenodd" clip-rule="evenodd" d="M57.5143 25.2C58.8159 25.2 59.8714 24.1926 59.8714 22.95C59.8714 21.7074 58.8159 20.7 57.5143 20.7C56.2127 20.7 55.1571 21.7074 55.1571 22.95C55.1571 24.1926 56.2127 25.2 57.5143 25.2Z" stroke="white" stroke-width="3"/>
<path d="M7.77857 37.125C7.77857 37.4978 8.09518 37.8 8.48571 37.8C8.87625 37.8 9.19286 37.4978 9.19286 37.125H7.77857ZM8.48571 10.8V10.125C8.09518 10.125 7.77857 10.4272 7.77857 10.8H8.48571ZM24.5143 11.475C24.9048 11.475 25.2214 11.1728 25.2214 10.8C25.2214 10.4272 24.9048 10.125 24.5143 10.125V11.475ZM9.19286 37.125V10.8H7.77857V37.125H9.19286ZM8.48571 11.475H24.5143V10.125H8.48571V11.475Z" fill="white"/>
<path fill-rule="evenodd" clip-rule="evenodd" d="M26.8714 8.54999C25.5696 8.54999 24.5143 9.55736 24.5143 10.8C24.5143 12.0426 25.5696 13.05 26.8714 13.05C28.1732 13.05 29.2286 12.0426 29.2286 10.8C29.2286 9.55736 28.1732 8.54999 26.8714 8.54999Z" stroke="white" stroke-width="3"/>
<path fill-rule="evenodd" clip-rule="evenodd" d="M8.48571 37.35C7.18391 37.35 6.12857 38.3574 6.12857 39.6C6.12857 40.8426 7.18391 41.85 8.48571 41.85C9.78752 41.85 10.8429 40.8426 10.8429 39.6C10.8429 38.3574 9.78752 37.35 8.48571 37.35Z" stroke="white" stroke-width="3"/>
<path opacity="0.1" d="M8.95714 27.6728V32.3443H13.851V27.6728H8.95714Z" fill="#3CE1CD"/>
<path opacity="0.1" d="M6.12857 20.7V25.3715H11.0225V20.7H6.12857Z" fill="#3CE1CD"/>
<path opacity="0.4" d="M15.3192 27.6728V32.3443H20.2131V27.6728H15.3192Z" fill="#3CE1CD"/>
<path opacity="0.4" d="M12.4906 20.7V25.3715H17.3845V20.7H12.4906Z" fill="#3CE1CD"/>
<path opacity="0.7" d="M21.6812 27.6729V32.3443H26.5751V27.6729H21.6812Z" fill="#3CE1CD"/>
<path opacity="0.7" d="M18.8527 20.7V25.3715H23.7466V20.7H18.8527Z" fill="#3CE1CD"/>
<path d="M28.0433 27.6728V32.3443H32.9372V27.6728H28.0433Z" fill="#3CE1CD"/>
<path d="M25.2147 20.7V25.3715H30.1086V20.7H25.2147Z" fill="#3CE1CD"/>
<defs>
<linearGradient id="paint0_linear_4_109" x1="29.9357" y1="16.65" x2="29.9357" y2="36" gradientUnits="userSpaceOnUse">
<stop stop-color="#3873FF"/>
<stop offset="1" stop-color="#3873FF" stop-opacity="0"/>
</linearGradient>
</defs>
</svg>
